<svg width="20" height="21" viewBox="0 0 20 21" fill="none" xmlns="http://www.w3.org/2000/svg">
<path d="M16.666 8V16.3333C16.666 16.7754 16.4904 17.1993 16.1779 17.5118C15.8653 17.8244 15.4414 18 14.9993 18H4.99935C4.55732 18 4.1334 17.8244 3.82084 17.5118C3.50828 17.1993 3.33268 16.7754 3.33268 16.3333V8C2.89065 8 2.46673 7.8244 2.15417 7.51184C1.84161 7.19928 1.66602 6.77536 1.66602 6.33333V4.66667C1.66602 3.75 2.41602 3 3.33268 3H16.666C17.108 3 17.532 3.17559 17.8445 3.48816C18.1571 3.80072 18.3327 4.22464 18.3327 4.66667V6.33333C18.3327 6.77536 18.1571 7.19928 17.8445 7.51184C17.532 7.8244 17.108 8 16.666 8ZM16.666 6.33333V4.66667H3.33268V6.33333H16.666ZM4.99935 8V16.3333H14.9993V8H4.99935ZM8.33268 9.66667H11.666C11.887 9.66667 12.099 9.75446 12.2553 9.91074C12.4116 10.067 12.4993 10.279 12.4993 10.5C12.4993 10.721 12.4116 10.933 12.2553 11.0893C12.099 11.2455 11.887 11.3333 11.666 11.3333H8.33268C8.11167 11.3333 7.89971 11.2455 7.74343 11.0893C7.58715 10.933 7.49935 10.721 7.49935 10.5C7.49935 10.279 7.58715 10.067 7.74343 9.91074C7.89971 9.75446 8.11167 9.66667 8.33268 9.66667Z" fill="#C4C4C4"/>
</svg>
