<svg width="18" height="19" viewBox="0 0 18 19" fill="none" xmlns="http://www.w3.org/2000/svg">
<path d="M15 7.25V14.75C15 15.1478 14.842 15.5294 14.5607 15.8107C14.2794 16.092 13.8978 16.25 13.5 16.25H4.5C4.10218 16.25 3.72064 16.092 3.43934 15.8107C3.15804 15.5294 3 15.1478 3 14.75V7.25C2.60218 7.25 2.22064 7.09196 1.93934 6.81066C1.65804 6.52936 1.5 6.14782 1.5 5.75V4.25C1.5 3.425 2.175 2.75 3 2.75H15C15.3978 2.75 15.7794 2.90804 16.0607 3.18934C16.342 3.47064 16.5 3.85218 16.5 4.25V5.75C16.5 6.14782 16.342 6.52936 16.0607 6.81066C15.7794 7.09196 15.3978 7.25 15 7.25ZM15 5.75V4.25H3V5.75H15ZM4.5 7.25V14.75H13.5V7.25H4.5ZM7.5 8.75H10.5C10.6989 8.75 10.8897 8.82902 11.0303 8.96967C11.171 9.11032 11.25 9.30109 11.25 9.5C11.25 9.69891 11.171 9.88968 11.0303 10.0303C10.8897 10.171 10.6989 10.25 10.5 10.25H7.5C7.30109 10.25 7.11032 10.171 6.96967 10.0303C6.82902 9.88968 6.75 9.69891 6.75 9.5C6.75 9.30109 6.82902 9.11032 6.96967 8.96967C7.11032 8.82902 7.30109 8.75 7.5 8.75Z" fill="#027DFF"/>
</svg>
