<svg width="25" height="24" viewBox="0 0 25 24" fill="none" xmlns="http://www.w3.org/2000/svg">
<path d="M2.8999 1.99272C2.34762 1.99272 1.8999 2.44044 1.8999 2.99272C1.8999 3.54501 2.34762 3.99272 2.8999 3.99272V1.99272ZM5.19244 2.99272L6.15767 2.73131C6.03961 2.2954 5.64405 1.99272 5.19244 1.99272V2.99272ZM8.91781 16.7479L7.95259 17.0094C8.08285 17.4904 8.54737 17.802 9.04185 17.7402L8.91781 16.7479ZM20.3805 15.3151L20.5045 16.3074C20.9292 16.2543 21.273 15.9368 21.3598 15.5177L20.3805 15.3151ZM22.0999 7.00466L23.0792 7.20727C23.1401 6.91275 23.0652 6.60645 22.8753 6.37324C22.6854 6.14002 22.4007 6.00466 22.0999 6.00466V7.00466ZM6.27901 7.00466L5.31378 7.26608L6.27901 7.00466ZM2.8999 3.99272H5.19244V1.99272H2.8999V3.99272ZM9.04185 17.7402L20.5045 16.3074L20.2565 14.3228L8.79378 15.7557L9.04185 17.7402ZM21.3598 15.5177L23.0792 7.20727L21.1206 6.80206L19.4012 15.1125L21.3598 15.5177ZM4.22721 3.25414L5.31378 7.26608L7.24423 6.74325L6.15767 2.73131L4.22721 3.25414ZM5.31378 7.26608L7.95259 17.0094L9.88304 16.4865L7.24423 6.74325L5.31378 7.26608ZM22.0999 6.00466H6.27901V8.00466H22.0999V6.00466ZM11.4999 20.5C11.4999 20.7761 11.276 21 10.9999 21V23C12.3806 23 13.4999 21.8807 13.4999 20.5H11.4999ZM10.9999 21C10.7238 21 10.4999 20.7761 10.4999 20.5H8.4999C8.4999 21.8807 9.61919 23 10.9999 23V21ZM10.4999 20.5C10.4999 20.2239 10.7238 20 10.9999 20V18C9.61919 18 8.4999 19.1193 8.4999 20.5H10.4999ZM10.9999 20C11.276 20 11.4999 20.2239 11.4999 20.5H13.4999C13.4999 19.1193 12.3806 18 10.9999 18V20ZM19.4999 20.5C19.4999 20.7761 19.276 21 18.9999 21V23C20.3806 23 21.4999 21.8807 21.4999 20.5H19.4999ZM18.9999 21C18.7238 21 18.4999 20.7761 18.4999 20.5H16.4999C16.4999 21.8807 17.6192 23 18.9999 23V21ZM18.4999 20.5C18.4999 20.2239 18.7238 20 18.9999 20V18C17.6192 18 16.4999 19.1193 16.4999 20.5H18.4999ZM18.9999 20C19.276 20 19.4999 20.2239 19.4999 20.5H21.4999C21.4999 19.1193 20.3806 18 18.9999 18V20Z" fill="url(#paint0_linear_9087_2818)"/>
<defs>
<linearGradient id="paint0_linear_9087_2818" x1="2.8999" y1="3.3141" x2="25.6724" y2="10.6808" gradientUnits="userSpaceOnUse">
<stop offset="0.307292" stop-color="#027DFF" stop-opacity="0.9"/>
<stop offset="0.494792" stop-color="#8C01E8" stop-opacity="0.9"/>
<stop offset="0.958333" stop-color="#6275E9"/>
</linearGradient>
</defs>
</svg>
