<svg width="25" height="24" viewBox="0 0 25 24" fill="none" xmlns="http://www.w3.org/2000/svg">
<path d="M2.90039 1.99273C2.34811 1.99273 1.90039 2.44044 1.90039 2.99273C1.90039 3.54501 2.34811 3.99273 2.90039 3.99273V1.99273ZM5.19293 2.99273L6.15815 2.73131C6.0401 2.29541 5.64453 1.99273 5.19293 1.99273V2.99273ZM8.9183 16.748L7.95307 17.0094C8.08334 17.4904 8.54786 17.802 9.04234 17.7402L8.9183 16.748ZM20.381 15.3151L20.505 16.3074C20.9297 16.2543 21.2735 15.9368 21.3602 15.5177L20.381 15.3151ZM22.1004 7.00467L23.0796 7.20728C23.1406 6.91276 23.0657 6.60646 22.8758 6.37325C22.6859 6.14003 22.4011 6.00467 22.1004 6.00467V7.00467ZM6.27949 7.00467L5.31427 7.26609L6.27949 7.00467ZM2.90039 3.99273H5.19293V1.99273H2.90039V3.99273ZM9.04234 17.7402L20.505 16.3074L20.2569 14.3228L8.79427 15.7557L9.04234 17.7402ZM21.3602 15.5177L23.0796 7.20728L21.1211 6.80206L19.4017 15.1125L21.3602 15.5177ZM4.2277 3.25414L5.31427 7.26609L7.24472 6.74326L6.15815 2.73131L4.2277 3.25414ZM5.31427 7.26609L7.95307 17.0094L9.88353 16.4865L7.24472 6.74326L5.31427 7.26609ZM22.1004 6.00467H6.27949V8.00467H22.1004V6.00467ZM11.5004 20.5C11.5004 20.7761 11.2765 21 11.0004 21V23C12.3811 23 13.5004 21.8807 13.5004 20.5H11.5004ZM11.0004 21C10.7242 21 10.5004 20.7761 10.5004 20.5H8.50039C8.50039 21.8807 9.61968 23 11.0004 23V21ZM10.5004 20.5C10.5004 20.2239 10.7242 20 11.0004 20V18C9.61968 18 8.50039 19.1193 8.50039 20.5H10.5004ZM11.0004 20C11.2765 20 11.5004 20.2239 11.5004 20.5H13.5004C13.5004 19.1193 12.3811 18 11.0004 18V20ZM19.5004 20.5C19.5004 20.7761 19.2765 21 19.0004 21V23C20.3811 23 21.5004 21.8807 21.5004 20.5H19.5004ZM19.0004 21C18.7242 21 18.5004 20.7761 18.5004 20.5H16.5004C16.5004 21.8807 17.6197 23 19.0004 23V21ZM18.5004 20.5C18.5004 20.2239 18.7242 20 19.0004 20V18C17.6197 18 16.5004 19.1193 16.5004 20.5H18.5004ZM19.0004 20C19.2765 20 19.5004 20.2239 19.5004 20.5H21.5004C21.5004 19.1193 20.3811 18 19.0004 18V20Z" fill="#C4C4C4"/>
</svg>
