<svg width="22" height="20" viewBox="0 0 22 20" fill="none" xmlns="http://www.w3.org/2000/svg">
<path d="M9.71886 2.79296H4.44108C2.69218 2.79296 1.27441 4.13611 1.27441 5.79296V15.7931C1.27441 17.4499 2.69218 18.7931 4.44108 18.7931H14.9966C16.7455 18.7931 18.1633 17.4499 18.1633 15.7931L18.1633 10.793M6.55219 13.793L10.3926 13.0599C10.5965 13.0209 10.7837 12.9258 10.9307 12.7865L19.528 4.63728C19.9401 4.24657 19.9399 3.61324 19.5273 3.22286L17.7061 1.49946C17.2938 1.10924 16.6256 1.10951 16.2136 1.50006L7.61546 9.6501C7.46872 9.78919 7.36853 9.96617 7.32741 10.1589L6.55219 13.793Z" stroke="#027DFF" stroke-width="2" stroke-linecap="round" stroke-linejoin="round"/>
</svg>
