<svg width="48" height="48" viewBox="0 0 48 48" fill="none" xmlns="http://www.w3.org/2000/svg">
<rect width="48" height="48" rx="24" fill="#EDF6FF"/>
<path d="M18.6 20.8V19.8857C18.6 16.8468 21.0086 14.4 24 14.4C26.9915 14.4 29.4001 16.8468 29.4001 19.8857V20.8M18.6 20.8C17.61 20.8 16.8 21.6229 16.8 22.6286V31.7714C16.8 32.7771 17.61 33.6 18.6 33.6H29.4001C30.3901 33.6 31.2001 32.7771 31.2001 31.7714V22.6286C31.2001 21.6229 30.3901 20.8 29.4001 20.8M18.6 20.8H29.4001M24 25.3714C24.9901 25.3714 25.8001 26.1943 25.8001 27.2C25.8001 28.2057 24.9901 29.0286 24 29.0286C23.01 29.0286 22.2 28.2057 22.2 27.2C22.2 26.1943 23.01 25.3714 24 25.3714Z" stroke="#027DFF" stroke-width="2"/>
</svg>
