<svg width="48" height="48" viewBox="0 0 48 48" fill="none" xmlns="http://www.w3.org/2000/svg">
<circle cx="24" cy="24" r="24" fill="#FFFCFC"/>
<circle cx="24" cy="24" r="18" fill="#FFF1F1"/>
<path d="M21.3529 28.2V30.3C21.3529 30.8569 21.576 31.3911 21.9732 31.7849C22.3703 32.1787 22.909 32.4 23.4706 32.4L30.8824 32.4C31.444 32.4 31.9826 32.1787 32.3798 31.7849C32.7769 31.3911 33 30.8569 33 30.3L33 17.7C33 17.143 32.7769 16.6089 32.3798 16.2151C31.9826 15.8212 31.444 15.6 30.8824 15.6L23.4706 15.6C22.909 15.6 22.3703 15.8212 21.9732 16.2151C21.5761 16.6089 21.3529 17.143 21.3529 17.7V19.8M27.7059 24L15 24M15 24L18.1765 27.15M15 24L18.1765 20.85" stroke="#FF3737" stroke-width="2" stroke-linecap="round" stroke-linejoin="round"/>
</svg>
