<svg width="216" height="151" viewBox="0 0 216 151" fill="none" xmlns="http://www.w3.org/2000/svg">
<path d="M173.957 0H46.2975C40.4221 0 35.6592 4.76293 35.6592 10.6383V138.298C35.6592 144.173 40.4221 148.936 46.2975 148.936H173.957C179.832 148.936 184.595 144.173 184.595 138.298V10.6383C184.595 4.76293 179.832 0 173.957 0Z" fill="#EDF6FF"/>
<g filter="url(#filter0_d_8815_4842)">
<path d="M156.936 10.6383H13.3191C10.3815 10.6383 8 13.0198 8 15.9575V42.5532C8 45.4909 10.3815 47.8723 13.3191 47.8723H156.936C159.874 47.8723 162.255 45.4909 162.255 42.5532V15.9575C162.255 13.0198 159.874 10.6383 156.936 10.6383Z" fill="white"/>
<path d="M81.4048 19.149H53.7452C51.9826 19.149 50.5537 20.5778 50.5537 22.3404C50.5537 24.1031 51.9826 25.5319 53.7452 25.5319H81.4048C83.1674 25.5319 84.5963 24.1031 84.5963 22.3404C84.5963 20.5778 83.1674 19.149 81.4048 19.149Z" fill="#EDF6FF"/>
<path d="M100.554 32.9787H53.7452C51.9826 32.9787 50.5537 34.4076 50.5537 36.1702C50.5537 37.9328 51.9826 39.3617 53.7452 39.3617H100.554C102.316 39.3617 103.745 37.9328 103.745 36.1702C103.745 34.4076 102.316 32.9787 100.554 32.9787Z" fill="#DEE9FC"/>
</g>
<path d="M36.7233 13.8298H16.5106C13.5729 13.8298 11.1914 16.2112 11.1914 19.1489V39.3617C11.1914 42.2994 13.5729 44.6808 16.5106 44.6808H36.7233C39.661 44.6808 42.0425 42.2994 42.0425 39.3617V19.1489C42.0425 16.2112 39.661 13.8298 36.7233 13.8298Z" fill="#027DFF"/>
<path d="M24.1929 32.7447H26.3206L26.344 31.9255C26.344 30.8489 27.0227 30.5681 27.9823 30.2638C28.9448 29.99 29.7921 29.4102 30.3959 28.6122C30.9997 27.8141 31.3273 26.8412 31.3291 25.8404C31.3501 25.2294 31.2441 24.6207 31.0178 24.0527C30.7914 23.4848 30.4496 22.9701 30.014 22.5411C29.5784 22.1121 29.0585 21.7782 28.4872 21.5605C27.9159 21.3429 27.3056 21.2462 26.695 21.2766C26.0497 21.2625 25.4083 21.3797 24.8096 21.6209C24.2109 21.8622 23.6675 22.2226 23.2123 22.6802C22.7571 23.1378 22.3996 23.6831 22.1614 24.283C21.9233 24.8829 21.8095 25.525 21.8269 26.1702H24.0269C24.0186 25.8139 24.0814 25.4596 24.2118 25.1279C24.3421 24.7963 24.5374 24.494 24.7861 24.2388C25.0347 23.9835 25.3319 23.7805 25.66 23.6416C25.9882 23.5027 26.3408 23.4307 26.6971 23.4298C27.0185 23.4111 27.3401 23.4619 27.6401 23.5786C27.9401 23.6954 28.2114 23.8753 28.4357 24.1062C28.66 24.3371 28.8319 24.6136 28.9398 24.9169C29.0477 25.2202 29.089 25.5431 29.061 25.8638C29.0468 26.3828 28.8663 26.8836 28.5461 27.2923C28.2259 27.701 27.7828 27.9961 27.2823 28.134L26.5099 28.4404C25.7538 28.6226 25.0936 29.0821 24.6601 29.728C24.2267 30.3738 24.0516 31.1588 24.1695 31.9276L24.1929 32.7447ZM25.2461 37.8021C25.4544 37.8095 25.6621 37.7751 25.8569 37.7008C26.0517 37.6266 26.2297 37.514 26.3802 37.3698C26.5308 37.2256 26.6509 37.0527 26.7335 36.8612C26.816 36.6698 26.8594 36.4638 26.861 36.2553C26.8591 36.047 26.8156 35.8412 26.7329 35.65C26.6502 35.4589 26.53 35.2862 26.3795 35.1422C26.229 34.9982 26.0511 34.8859 25.8565 34.8117C25.6618 34.7376 25.4543 34.7032 25.2461 34.7106C25.0379 34.7032 24.8304 34.7376 24.6357 34.8117C24.4411 34.8859 24.2632 34.9982 24.1127 35.1422C23.9622 35.2862 23.842 35.4589 23.7593 35.65C23.6766 35.8412 23.633 36.047 23.6312 36.2553C23.6328 36.4638 23.6761 36.6698 23.7587 36.8612C23.8413 37.0527 23.9614 37.2256 24.1119 37.3698C24.2625 37.514 24.4404 37.6266 24.6352 37.7008C24.83 37.7751 25.0377 37.8095 25.2461 37.8021Z" fill="white"/>
<path d="M37.0319 13.4681H16.8191C13.8815 13.4681 11.5 15.8495 11.5 18.7872V39C11.5 41.9377 13.8815 44.3191 16.8191 44.3191H37.0319C39.9696 44.3191 42.3511 41.9377 42.3511 39V18.7872C42.3511 15.8495 39.9696 13.4681 37.0319 13.4681Z" fill="#FBFBFB"/>
<path d="M19.2998 34.8524C19.2998 32.0207 21.6655 29.7252 26.4998 29.7252C31.3341 29.7252 33.6998 32.0207 33.6998 34.8524C33.6998 35.3029 33.3711 35.6681 32.9657 35.6681H20.0339C19.6285 35.6681 19.2998 35.3029 19.2998 34.8524Z" stroke="url(#paint0_linear_8815_4842)" stroke-width="1.5"/>
<path d="M29.1998 23.9681C29.1998 25.4592 27.991 26.6681 26.4998 26.6681C25.0086 26.6681 23.7998 25.4592 23.7998 23.9681C23.7998 22.4769 25.0086 21.2681 26.4998 21.2681C27.991 21.2681 29.1998 22.4769 29.1998 23.9681Z" stroke="url(#paint1_linear_8815_4842)" stroke-width="1.5"/>
<g filter="url(#filter1_d_8815_4842)">
<path d="M59.0633 56.383H202.68C204.091 56.383 205.444 56.9434 206.442 57.9409C207.439 58.9385 207.999 60.2914 207.999 61.7021V88.2979C207.999 89.7086 207.439 91.0616 206.442 92.0591C205.444 93.0566 204.091 93.617 202.68 93.617H59.0633C57.6526 93.617 56.2996 93.0566 55.3021 92.0591C54.3045 91.0616 53.7441 89.7086 53.7441 88.2979V61.7021C53.7441 60.2914 54.3045 58.9385 55.3021 57.9409C56.2996 56.9434 57.6526 56.383 59.0633 56.383V56.383Z" fill="white"/>
<path d="M127.149 64.8936H99.4893C97.7267 64.8936 96.2979 66.3225 96.2979 68.0851C96.2979 69.8477 97.7267 71.2766 99.4893 71.2766H127.149C128.912 71.2766 130.34 69.8477 130.34 68.0851C130.34 66.3225 128.912 64.8936 127.149 64.8936Z" fill="#EDF6FF"/>
<path d="M146.298 78.7234H99.4893C97.7267 78.7234 96.2979 80.1523 96.2979 81.9149C96.2979 83.6775 97.7267 85.1064 99.4893 85.1064H146.298C148.06 85.1064 149.489 83.6775 149.489 81.9149C149.489 80.1523 148.06 78.7234 146.298 78.7234Z" fill="#DEE9FC"/>
<path d="M82.0319 59.4681H61.8191C58.8815 59.4681 56.5 61.8495 56.5 64.7872V85C56.5 87.9377 58.8815 90.3191 61.8191 90.3191H82.0319C84.9696 90.3191 87.3511 87.9377 87.3511 85V64.7872C87.3511 61.8495 84.9696 59.4681 82.0319 59.4681Z" fill="#FBFBFB"/>
<path d="M64.2998 80.8524C64.2998 78.0207 66.6655 75.7252 71.4998 75.7252C76.3341 75.7252 78.6998 78.0207 78.6998 80.8524C78.6998 81.3029 78.3711 81.6681 77.9657 81.6681H65.0339C64.6285 81.6681 64.2998 81.3029 64.2998 80.8524Z" stroke="url(#paint2_linear_8815_4842)" stroke-width="1.5"/>
<path d="M74.1998 69.9681C74.1998 71.4592 72.991 72.6681 71.4998 72.6681C70.0086 72.6681 68.7998 71.4592 68.7998 69.9681C68.7998 68.4769 70.0086 67.2681 71.4998 67.2681C72.991 67.2681 74.1998 68.4769 74.1998 69.9681Z" stroke="url(#paint3_linear_8815_4842)" stroke-width="1.5"/>
</g>
<g filter="url(#filter2_d_8815_4842)">
<path d="M13.3191 102.128H156.936C158.347 102.128 159.7 102.688 160.697 103.686C161.695 104.683 162.255 106.036 162.255 107.447V134.043C162.255 135.453 161.695 136.806 160.697 137.804C159.7 138.801 158.347 139.362 156.936 139.362H13.3191C11.9084 139.362 10.5555 138.801 9.55794 137.804C8.56041 136.806 8 135.453 8 134.043V107.447C8 106.036 8.56041 104.683 9.55794 103.686C10.5555 102.688 11.9084 102.128 13.3191 102.128V102.128Z" fill="white"/>
<path d="M81.4048 110.638H53.7452C51.9826 110.638 50.5537 112.067 50.5537 113.83C50.5537 115.592 51.9826 117.021 53.7452 117.021H81.4048C83.1674 117.021 84.5963 115.592 84.5963 113.83C84.5963 112.067 83.1674 110.638 81.4048 110.638Z" fill="#EDF6FF"/>
<path d="M100.554 124.468H53.7452C51.9826 124.468 50.5537 125.897 50.5537 127.66C50.5537 129.422 51.9826 130.851 53.7452 130.851H100.554C102.316 130.851 103.745 129.422 103.745 127.66C103.745 125.897 102.316 124.468 100.554 124.468Z" fill="#DEE9FC"/>
<path d="M37.0319 105.468H16.8191C13.8815 105.468 11.5 107.85 11.5 110.787V131C11.5 133.938 13.8815 136.319 16.8191 136.319H37.0319C39.9696 136.319 42.3511 133.938 42.3511 131V110.787C42.3511 107.85 39.9696 105.468 37.0319 105.468Z" fill="#FBFBFB"/>
<path d="M19.2998 126.852C19.2998 124.021 21.6655 121.725 26.4998 121.725C31.3341 121.725 33.6998 124.021 33.6998 126.852C33.6998 127.303 33.3711 127.668 32.9657 127.668H20.0339C19.6285 127.668 19.2998 127.303 19.2998 126.852Z" stroke="url(#paint4_linear_8815_4842)" stroke-width="1.5"/>
<path d="M29.1998 115.968C29.1998 117.459 27.991 118.668 26.4998 118.668C25.0086 118.668 23.7998 117.459 23.7998 115.968C23.7998 114.477 25.0086 113.268 26.4998 113.268C27.991 113.268 29.1998 114.477 29.1998 115.968Z" stroke="url(#paint5_linear_8815_4842)" stroke-width="1.5"/>
</g>
<defs>
<filter id="filter0_d_8815_4842" x="0.436965" y="6.85679" width="169.381" height="52.3601" filterUnits="userSpaceOnUse" color-interpolation-filters="sRGB">
<feFlood flood-opacity="0" result="BackgroundImageFix"/>
<feColorMatrix in="SourceAlpha" type="matrix" values="0 0 0 0 0 0 0 0 0 0 0 0 0 0 0 0 0 0 127 0" result="hardAlpha"/>
<feOffset dy="3.78152"/>
<feGaussianBlur stdDeviation="3.78152"/>
<feComposite in2="hardAlpha" operator="out"/>
<feColorMatrix type="matrix" values="0 0 0 0 0 0 0 0 0 0 0 0 0 0 0 0 0 0 0.08 0"/>
<feBlend mode="normal" in2="BackgroundImageFix" result="effect1_dropShadow_8815_4842"/>
<feBlend mode="normal" in="SourceGraphic" in2="effect1_dropShadow_8815_4842" result="shape"/>
</filter>
<filter id="filter1_d_8815_4842" x="46.1811" y="52.6015" width="169.381" height="52.3601" filterUnits="userSpaceOnUse" color-interpolation-filters="sRGB">
<feFlood flood-opacity="0" result="BackgroundImageFix"/>
<feColorMatrix in="SourceAlpha" type="matrix" values="0 0 0 0 0 0 0 0 0 0 0 0 0 0 0 0 0 0 127 0" result="hardAlpha"/>
<feOffset dy="3.78152"/>
<feGaussianBlur stdDeviation="3.78152"/>
<feComposite in2="hardAlpha" operator="out"/>
<feColorMatrix type="matrix" values="0 0 0 0 0 0 0 0 0 0 0 0 0 0 0 0 0 0 0.08 0"/>
<feBlend mode="normal" in2="BackgroundImageFix" result="effect1_dropShadow_8815_4842"/>
<feBlend mode="normal" in="SourceGraphic" in2="effect1_dropShadow_8815_4842" result="shape"/>
</filter>
<filter id="filter2_d_8815_4842" x="0.436965" y="98.3461" width="169.381" height="52.3601" filterUnits="userSpaceOnUse" color-interpolation-filters="sRGB">
<feFlood flood-opacity="0" result="BackgroundImageFix"/>
<feColorMatrix in="SourceAlpha" type="matrix" values="0 0 0 0 0 0 0 0 0 0 0 0 0 0 0 0 0 0 127 0" result="hardAlpha"/>
<feOffset dy="3.78152"/>
<feGaussianBlur stdDeviation="3.78152"/>
<feComposite in2="hardAlpha" operator="out"/>
<feColorMatrix type="matrix" values="0 0 0 0 0 0 0 0 0 0 0 0 0 0 0 0 0 0 0.08 0"/>
<feBlend mode="normal" in2="BackgroundImageFix" result="effect1_dropShadow_8815_4842"/>
<feBlend mode="normal" in="SourceGraphic" in2="effect1_dropShadow_8815_4842" result="shape"/>
</filter>
<linearGradient id="paint0_linear_8815_4842" x1="19.2998" y1="21.5115" x2="36.4116" y2="26.9915" gradientUnits="userSpaceOnUse">
<stop offset="0.307292" stop-color="#027DFF" stop-opacity="0.9"/>
<stop offset="0.494792" stop-color="#8C01E8" stop-opacity="0.9"/>
<stop offset="0.958333" stop-color="#6275E9"/>
</linearGradient>
<linearGradient id="paint1_linear_8815_4842" x1="19.2998" y1="21.5115" x2="36.4116" y2="26.9915" gradientUnits="userSpaceOnUse">
<stop offset="0.307292" stop-color="#027DFF" stop-opacity="0.9"/>
<stop offset="0.494792" stop-color="#8C01E8" stop-opacity="0.9"/>
<stop offset="0.958333" stop-color="#6275E9"/>
</linearGradient>
<linearGradient id="paint2_linear_8815_4842" x1="64.2998" y1="67.5115" x2="81.4116" y2="72.9915" gradientUnits="userSpaceOnUse">
<stop offset="0.307292" stop-color="#027DFF" stop-opacity="0.9"/>
<stop offset="0.494792" stop-color="#8C01E8" stop-opacity="0.9"/>
<stop offset="0.958333" stop-color="#6275E9"/>
</linearGradient>
<linearGradient id="paint3_linear_8815_4842" x1="64.2998" y1="67.5115" x2="81.4116" y2="72.9915" gradientUnits="userSpaceOnUse">
<stop offset="0.307292" stop-color="#027DFF" stop-opacity="0.9"/>
<stop offset="0.494792" stop-color="#8C01E8" stop-opacity="0.9"/>
<stop offset="0.958333" stop-color="#6275E9"/>
</linearGradient>
<linearGradient id="paint4_linear_8815_4842" x1="19.2998" y1="113.512" x2="36.4116" y2="118.991" gradientUnits="userSpaceOnUse">
<stop offset="0.307292" stop-color="#027DFF" stop-opacity="0.9"/>
<stop offset="0.494792" stop-color="#8C01E8" stop-opacity="0.9"/>
<stop offset="0.958333" stop-color="#6275E9"/>
</linearGradient>
<linearGradient id="paint5_linear_8815_4842" x1="19.2998" y1="113.512" x2="36.4116" y2="118.991" gradientUnits="userSpaceOnUse">
<stop offset="0.307292" stop-color="#027DFF" stop-opacity="0.9"/>
<stop offset="0.494792" stop-color="#8C01E8" stop-opacity="0.9"/>
<stop offset="0.958333" stop-color="#6275E9"/>
</linearGradient>
</defs>
</svg>
