<svg width="100" height="100" viewBox="0 0 100 100" fill="none" xmlns="http://www.w3.org/2000/svg">
<circle cx="50" cy="50" r="50" fill="#F9FCFF"/>
<path d="M43.75 67.9798C45.4086 69.2361 47.5989 70 50 70C52.4011 70 54.5914 69.2361 56.25 67.9798M32.4398 61.5151C31.4516 61.5151 30.8997 60.0432 31.4974 59.2254C32.8844 57.3279 34.2232 54.5448 34.2232 51.1933L34.2804 46.337C34.2804 37.3143 41.3183 30 50 30C58.8096 30 65.9512 37.4221 65.9512 46.5777L65.894 51.1933C65.894 54.5678 67.1865 57.3661 68.5171 59.2644C69.0917 60.0842 68.5384 61.5151 67.5625 61.5151H32.4398Z" stroke="url(#paint0_linear_9675_8778)" stroke-width="2" stroke-linecap="round" stroke-linejoin="round"/>
<defs>
<linearGradient id="paint0_linear_9675_8778" x1="31.25" y1="30.6763" x2="76.3196" y2="44.2075" gradientUnits="userSpaceOnUse">
<stop offset="0.307292" stop-color="#027DFF" stop-opacity="0.9"/>
<stop offset="0.494792" stop-color="#8C01E8" stop-opacity="0.9"/>
<stop offset="0.958333" stop-color="#6275E9"/>
</linearGradient>
</defs>
</svg>
