<svg width="100" height="100" viewBox="0 0 100 100" fill="none" xmlns="http://www.w3.org/2000/svg">
<circle cx="50" cy="50" r="50" fill="#F9FCFF"/>
<path d="M30 30.2349C29.4477 30.2349 29 30.6826 29 31.2349C29 31.7871 29.4477 32.2349 30 32.2349V30.2349ZM34.7761 31.2349L35.7413 30.9734C35.6233 30.5375 35.2277 30.2349 34.7761 30.2349V31.2349ZM42.5373 59.8916L41.5721 60.153C41.7024 60.634 42.1669 60.9457 42.6613 60.8839L42.5373 59.8916ZM66.4179 56.9065L66.5419 57.8988C66.9666 57.8457 67.3104 57.5282 67.3972 57.1091L66.4179 56.9065ZM70 39.5931L70.9793 39.7957C71.0402 39.5012 70.9653 39.1949 70.7754 38.9616C70.5855 38.7284 70.3007 38.5931 70 38.5931V39.5931ZM37.0398 39.5931L36.0746 39.8545L37.0398 39.5931ZM30 32.2349H34.7761V30.2349H30V32.2349ZM42.6613 60.8839L66.5419 57.8988L66.2939 55.9142L42.4133 58.8993L42.6613 60.8839ZM67.3972 57.1091L70.9793 39.7957L69.0207 39.3905L65.4386 56.7039L67.3972 57.1091ZM33.8109 31.4963L36.0746 39.8545L38.005 39.3317L35.7413 30.9734L33.8109 31.4963ZM36.0746 39.8545L41.5721 60.153L43.5025 59.6302L38.005 39.3317L36.0746 39.8545ZM70 38.5931H37.0398V40.5931H70V38.5931ZM49 67.7083C49 68.882 48.0486 69.8333 46.875 69.8333V71.8333C49.1532 71.8333 51 69.9865 51 67.7083H49ZM46.875 69.8333C45.7014 69.8333 44.75 68.882 44.75 67.7083H42.75C42.75 69.9865 44.5968 71.8333 46.875 71.8333V69.8333ZM44.75 67.7083C44.75 66.5347 45.7014 65.5833 46.875 65.5833V63.5833C44.5968 63.5833 42.75 65.4302 42.75 67.7083H44.75ZM46.875 65.5833C48.0486 65.5833 49 66.5347 49 67.7083H51C51 65.4302 49.1532 63.5833 46.875 63.5833V65.5833ZM65.6667 67.7083C65.6667 68.882 64.7153 69.8333 63.5417 69.8333V71.8333C65.8198 71.8333 67.6667 69.9865 67.6667 67.7083H65.6667ZM63.5417 69.8333C62.3681 69.8333 61.4167 68.882 61.4167 67.7083H59.4167C59.4167 69.9865 61.2635 71.8333 63.5417 71.8333V69.8333ZM61.4167 67.7083C61.4167 66.5347 62.3681 65.5833 63.5417 65.5833V63.5833C61.2635 63.5833 59.4167 65.4302 59.4167 67.7083H61.4167ZM63.5417 65.5833C64.7153 65.5833 65.6667 66.5347 65.6667 67.7083H67.6667C67.6667 65.4302 65.8198 63.5833 63.5417 63.5833V65.5833Z" fill="url(#paint0_linear_9532_7964)"/>
<defs>
<linearGradient id="paint0_linear_9532_7964" x1="30" y1="31.9044" x2="77.4428" y2="47.2517" gradientUnits="userSpaceOnUse">
<stop offset="0.307292" stop-color="#027DFF" stop-opacity="0.9"/>
<stop offset="0.494792" stop-color="#8C01E8" stop-opacity="0.9"/>
<stop offset="0.958333" stop-color="#6275E9"/>
</linearGradient>
</defs>
</svg>
