<svg width="216" height="153" viewBox="0 0 216 153" fill="none" xmlns="http://www.w3.org/2000/svg">
<path d="M173.957 0H46.2975C40.4221 0 35.6592 4.76293 35.6592 10.6383V138.298C35.6592 144.173 40.4221 148.936 46.2975 148.936H173.957C179.832 148.936 184.595 144.173 184.595 138.298V10.6383C184.595 4.76293 179.832 0 173.957 0Z" fill="#EDF6FF"/>
<g filter="url(#filter0_d_8922_7551)">
<path d="M156.936 9H13.3191C10.3815 9 8 11.3815 8 14.3191V40.9149C8 43.8526 10.3815 46.234 13.3191 46.234H156.936C159.874 46.234 162.255 43.8526 162.255 40.9149V14.3191C162.255 11.3815 159.874 9 156.936 9Z" fill="white"/>
<path d="M81.4048 17.5107H53.7452C51.9826 17.5107 50.5537 18.9395 50.5537 20.7021C50.5537 22.4648 51.9826 23.8936 53.7452 23.8936H81.4048C83.1674 23.8936 84.5963 22.4648 84.5963 20.7021C84.5963 18.9395 83.1674 17.5107 81.4048 17.5107Z" fill="#EDF6FF"/>
<path d="M100.554 31.3404H53.7452C51.9826 31.3404 50.5537 32.7693 50.5537 34.5319C50.5537 36.2945 51.9826 37.7234 53.7452 37.7234H100.554C102.316 37.7234 103.745 36.2945 103.745 34.5319C103.745 32.7693 102.316 31.3404 100.554 31.3404Z" fill="#DEE9FC"/>
<path d="M36.5319 12.3617H16.3191C13.3815 12.3617 11 14.7432 11 17.6808V37.8936C11 40.8313 13.3815 43.2128 16.3191 43.2128H36.5319C39.4696 43.2128 41.8511 40.8313 41.8511 37.8936V17.6808C41.8511 14.7432 39.4696 12.3617 36.5319 12.3617Z" fill="#FBFBFB"/>
<path d="M22.5853 33.504C22.1923 33.635 21.98 34.0597 22.1109 34.4527C22.2419 34.8457 22.6667 35.058 23.0596 34.927L22.5853 33.504ZM27.4955 34.5271L27.4275 33.7802L27.4955 34.5271ZM30.2994 33.904L30.6283 34.578L30.2994 33.904ZM32.9785 31.4668L32.3957 30.9948H32.3957L32.9785 31.4668ZM31.1461 29.9419L31.6765 30.4722L31.1461 29.9419ZM29.9123 31.1757L30.4426 31.7061V31.7061L29.9123 31.1757ZM26.5609 30.9732C26.1467 30.9732 25.8109 31.309 25.8109 31.7232C25.8109 32.1374 26.1467 32.4732 26.5609 32.4732V30.9732ZM32.6936 29.7886L32.2776 30.4127L32.6936 29.7886ZM23.7708 29.3798L24.1062 30.0507H24.1062L23.7708 29.3798ZM27.1244 29.0731L27.3218 28.3495L27.1244 29.0731ZM28.4341 29.4302L28.2367 30.1538L28.4341 29.4302ZM28.849 30.9928L28.3187 30.4625L28.849 30.9928ZM27.5883 31.1929C27.2954 31.4858 27.2954 31.9607 27.5883 32.2536C27.8812 32.5464 28.3561 32.5464 28.6489 32.2536L27.5883 31.1929ZM23.0596 34.927C23.1472 34.8979 23.3357 34.8767 23.6745 34.9008C23.998 34.9239 24.376 34.9806 24.809 35.0486C25.6309 35.1777 26.6712 35.3553 27.5636 35.274L27.4275 33.7802C26.7622 33.8408 25.9333 33.7068 25.0417 33.5668C24.618 33.5002 24.1782 33.4329 23.7812 33.4046C23.3996 33.3774 22.965 33.3774 22.5853 33.504L23.0596 34.927ZM27.5636 35.274C28.1365 35.2218 28.6257 35.1969 29.0762 35.1154C29.5648 35.027 30.0228 34.8735 30.6283 34.578L29.9705 33.23C29.461 33.4786 29.1348 33.5804 28.8091 33.6394C28.4454 33.7052 28.0902 33.7198 27.4275 33.7802L27.5636 35.274ZM30.6283 34.578C31.2159 34.2913 31.7826 33.8289 32.2694 33.3612C32.7635 32.8865 33.2121 32.3701 33.5613 31.9389L32.3957 30.9948C32.0699 31.3971 31.6642 31.8625 31.2301 32.2795C30.7888 32.7036 30.3535 33.0431 29.9705 33.23L30.6283 34.578ZM30.6158 29.4115L29.3819 30.6454L30.4426 31.7061L31.6765 30.4722L30.6158 29.4115ZM28.5905 30.9732H26.5609V32.4732H28.5905V30.9732ZM29.3819 30.6454C29.172 30.8553 28.8873 30.9732 28.5905 30.9732V32.4732C29.2852 32.4732 29.9514 32.1973 30.4426 31.7061L29.3819 30.6454ZM33.1097 29.1646C32.3258 28.642 31.282 28.7453 30.6158 29.4115L31.6765 30.4722C31.837 30.3116 32.0887 30.2867 32.2776 30.4127L33.1097 29.1646ZM33.5613 31.9389C34.2909 31.0381 34.0162 29.7689 33.1097 29.1646L32.2776 30.4127C32.5078 30.5661 32.5259 30.834 32.3957 30.9948L33.5613 31.9389ZM19.3955 29.3578H21.8878V27.8578H19.3955V29.3578ZM21.7609 29.2309V34.8386H23.2609V29.2309H21.7609ZM21.8878 34.7117H19.3955V36.2117H21.8878V34.7117ZM19.5225 34.8386V29.2309H18.0225V34.8386H19.5225ZM19.3955 34.7117C19.4656 34.7117 19.5225 34.7685 19.5225 34.8386H18.0225C18.0225 35.5969 18.6372 36.2117 19.3955 36.2117V34.7117ZM21.7609 34.8386C21.7609 34.7685 21.8177 34.7117 21.8878 34.7117V36.2117C22.6462 36.2117 23.2609 35.5969 23.2609 34.8386H21.7609ZM21.8878 29.3578C21.8177 29.3578 21.7609 29.301 21.7609 29.2309H23.2609C23.2609 28.4726 22.6462 27.8578 21.8878 27.8578V29.3578ZM19.3955 27.8578C18.6372 27.8578 18.0225 28.4726 18.0225 29.2309H19.5225C19.5225 29.301 19.4656 29.3578 19.3955 29.3578V27.8578ZM23.1579 30.5248L24.1062 30.0507L23.4354 28.709L22.4871 29.1832L23.1579 30.5248ZM25.7213 29.6694H25.9768V28.1694H25.7213V29.6694ZM26.9271 29.7966L28.2367 30.1538L28.6314 28.7067L27.3218 28.3495L26.9271 29.7966ZM28.3187 30.4625L27.5883 31.1929L28.6489 32.2536L29.3794 31.5231L28.3187 30.4625ZM28.2367 30.1538C28.3735 30.1911 28.4189 30.3622 28.3187 30.4625L29.3794 31.5231C30.294 30.6085 29.8793 29.047 28.6314 28.7067L28.2367 30.1538ZM25.9768 29.6694C26.2978 29.6694 26.6174 29.7122 26.9271 29.7966L27.3218 28.3495C26.8835 28.23 26.4312 28.1694 25.9768 28.1694V29.6694ZM24.1062 30.0507C24.6077 29.7999 25.1606 29.6694 25.7213 29.6694V28.1694C24.9278 28.1694 24.1451 28.3541 23.4354 28.709L24.1062 30.0507ZM29.8609 24.2463C29.8609 25.2086 29.0809 25.9886 28.1186 25.9886V27.4886C29.9093 27.4886 31.3609 26.037 31.3609 24.2463H29.8609ZM28.1186 25.9886C27.1564 25.9886 26.3763 25.2086 26.3763 24.2463H24.8763C24.8763 26.037 26.3279 27.4886 28.1186 27.4886V25.9886ZM26.3763 24.2463C26.3763 23.2841 27.1564 22.504 28.1186 22.504V21.004C26.3279 21.004 24.8763 22.4556 24.8763 24.2463H26.3763ZM28.1186 22.504C29.0809 22.504 29.8609 23.2841 29.8609 24.2463H31.3609C31.3609 22.4556 29.9093 21.004 28.1186 21.004V22.504ZM25.6263 23.4963C24.6641 23.4963 23.884 22.7162 23.884 21.754H22.384C22.384 23.5447 23.8356 24.9963 25.6263 24.9963V23.4963ZM23.884 21.754C23.884 20.7917 24.6641 20.0117 25.6263 20.0117V18.5117C23.8356 18.5117 22.384 19.9633 22.384 21.754H23.884ZM25.6263 20.0117C26.5886 20.0117 27.3686 20.7917 27.3686 21.754H28.8686C28.8686 19.9633 27.417 18.5117 25.6263 18.5117V20.0117Z" fill="url(#paint0_linear_8922_7551)"/>
</g>
<g filter="url(#filter1_d_8922_7551)">
<path d="M13.3191 103.468H156.936C158.347 103.468 159.7 104.028 160.697 105.026C161.695 106.024 162.255 107.377 162.255 108.787V135.383C162.255 136.794 161.695 138.147 160.697 139.144C159.7 140.142 158.347 140.702 156.936 140.702H13.3191C11.9084 140.702 10.5555 140.142 9.55794 139.144C8.56041 138.147 8 136.794 8 135.383V108.787C8 107.377 8.56041 106.024 9.55794 105.026C10.5555 104.028 11.9084 103.468 13.3191 103.468V103.468Z" fill="white"/>
<path d="M81.4048 111.979H53.7452C51.9826 111.979 50.5537 113.408 50.5537 115.17C50.5537 116.933 51.9826 118.362 53.7452 118.362H81.4048C83.1674 118.362 84.5963 116.933 84.5963 115.17C84.5963 113.408 83.1674 111.979 81.4048 111.979Z" fill="#EDF6FF"/>
<path d="M100.554 125.809H53.7452C51.9826 125.809 50.5537 127.237 50.5537 129C50.5537 130.763 51.9826 132.191 53.7452 132.191H100.554C102.316 132.191 103.745 130.763 103.745 129C103.745 127.237 102.316 125.809 100.554 125.809Z" fill="#DEE9FC"/>
<path d="M36.5319 106.66H16.3191C13.3815 106.66 11 109.042 11 111.98V132.192C11 135.13 13.3815 137.511 16.3191 137.511H36.5319C39.4696 137.511 41.8511 135.13 41.8511 132.192V111.98C41.8511 109.042 39.4696 106.66 36.5319 106.66Z" fill="#FBFBFB"/>
<path d="M22.5853 127.803C22.1923 127.934 21.98 128.358 22.1109 128.751C22.2419 129.144 22.6667 129.357 23.0596 129.226L22.5853 127.803ZM27.4955 128.826L27.4275 128.079L27.4955 128.826ZM30.2994 128.203L30.6283 128.877L30.2994 128.203ZM32.9785 125.766L32.3957 125.294H32.3957L32.9785 125.766ZM31.1461 124.241L31.6765 124.771L31.1461 124.241ZM29.9123 125.474L30.4426 126.005V126.005L29.9123 125.474ZM26.5609 125.272C26.1467 125.272 25.8109 125.608 25.8109 126.022C25.8109 126.436 26.1467 126.772 26.5609 126.772V125.272ZM32.6936 124.087L32.2776 124.711L32.6936 124.087ZM23.7708 123.679L24.1062 124.349H24.1062L23.7708 123.679ZM27.1244 123.372L27.3218 122.648L27.1244 123.372ZM28.4341 123.729L28.2367 124.453L28.4341 123.729ZM28.849 125.292L28.3187 124.761L28.849 125.292ZM27.5883 125.492C27.2954 125.785 27.2954 126.259 27.5883 126.552C27.8812 126.845 28.3561 126.845 28.6489 126.552L27.5883 125.492ZM23.0596 129.226C23.1472 129.197 23.3357 129.175 23.6745 129.2C23.998 129.223 24.376 129.279 24.809 129.347C25.6309 129.476 26.6712 129.654 27.5636 129.573L27.4275 128.079C26.7622 128.14 25.9333 128.006 25.0417 127.866C24.618 127.799 24.1782 127.732 23.7812 127.703C23.3996 127.676 22.965 127.676 22.5853 127.803L23.0596 129.226ZM27.5636 129.573C28.1365 129.521 28.6257 129.496 29.0762 129.414C29.5648 129.326 30.0228 129.172 30.6283 128.877L29.9705 127.529C29.461 127.777 29.1348 127.879 28.8091 127.938C28.4454 128.004 28.0902 128.019 27.4275 128.079L27.5636 129.573ZM30.6283 128.877C31.2159 128.59 31.7826 128.128 32.2694 127.66C32.7635 127.185 33.2121 126.669 33.5613 126.238L32.3957 125.294C32.0699 125.696 31.6642 126.161 31.2301 126.578C30.7888 127.002 30.3535 127.342 29.9705 127.529L30.6283 128.877ZM30.6158 123.71L29.3819 124.944L30.4426 126.005L31.6765 124.771L30.6158 123.71ZM28.5905 125.272H26.5609V126.772H28.5905V125.272ZM29.3819 124.944C29.172 125.154 28.8873 125.272 28.5905 125.272V126.772C29.2852 126.772 29.9514 126.496 30.4426 126.005L29.3819 124.944ZM33.1097 123.463C32.3258 122.941 31.282 123.044 30.6158 123.71L31.6765 124.771C31.837 124.61 32.0887 124.585 32.2776 124.711L33.1097 123.463ZM33.5613 126.238C34.2909 125.337 34.0162 124.068 33.1097 123.463L32.2776 124.711C32.5078 124.865 32.5259 125.133 32.3957 125.294L33.5613 126.238ZM19.3955 123.657H21.8878V122.157H19.3955V123.657ZM21.7609 123.53V129.137H23.2609V123.53H21.7609ZM21.8878 129.01H19.3955V130.51H21.8878V129.01ZM19.5225 129.137V123.53H18.0225V129.137H19.5225ZM19.3955 129.01C19.4656 129.01 19.5225 129.067 19.5225 129.137H18.0225C18.0225 129.896 18.6372 130.51 19.3955 130.51V129.01ZM21.7609 129.137C21.7609 129.067 21.8177 129.01 21.8878 129.01V130.51C22.6462 130.51 23.2609 129.896 23.2609 129.137H21.7609ZM21.8878 123.657C21.8177 123.657 21.7609 123.6 21.7609 123.53H23.2609C23.2609 122.771 22.6462 122.157 21.8878 122.157V123.657ZM19.3955 122.157C18.6372 122.157 18.0225 122.771 18.0225 123.53H19.5225C19.5225 123.6 19.4656 123.657 19.3955 123.657V122.157ZM23.1579 124.824L24.1062 124.349L23.4354 123.008L22.4871 123.482L23.1579 124.824ZM25.7213 123.968H25.9768V122.468H25.7213V123.968ZM26.9271 124.095L28.2367 124.453L28.6314 123.005L27.3218 122.648L26.9271 124.095ZM28.3187 124.761L27.5883 125.492L28.6489 126.552L29.3794 125.822L28.3187 124.761ZM28.2367 124.453C28.3735 124.49 28.4189 124.661 28.3187 124.761L29.3794 125.822C30.294 124.907 29.8793 123.346 28.6314 123.005L28.2367 124.453ZM25.9768 123.968C26.2978 123.968 26.6174 124.011 26.9271 124.095L27.3218 122.648C26.8835 122.529 26.4312 122.468 25.9768 122.468V123.968ZM24.1062 124.349C24.6077 124.099 25.1606 123.968 25.7213 123.968V122.468C24.9278 122.468 24.1451 122.653 23.4354 123.008L24.1062 124.349ZM29.8609 118.545C29.8609 119.507 29.0809 120.287 28.1186 120.287V121.787C29.9093 121.787 31.3609 120.336 31.3609 118.545H29.8609ZM28.1186 120.287C27.1564 120.287 26.3763 119.507 26.3763 118.545H24.8763C24.8763 120.336 26.3279 121.787 28.1186 121.787V120.287ZM26.3763 118.545C26.3763 117.583 27.1564 116.803 28.1186 116.803V115.303C26.3279 115.303 24.8763 116.754 24.8763 118.545H26.3763ZM28.1186 116.803C29.0809 116.803 29.8609 117.583 29.8609 118.545H31.3609C31.3609 116.754 29.9093 115.303 28.1186 115.303V116.803ZM25.6263 117.795C24.6641 117.795 23.884 117.015 23.884 116.053H22.384C22.384 117.843 23.8356 119.295 25.6263 119.295V117.795ZM23.884 116.053C23.884 115.09 24.6641 114.31 25.6263 114.31V112.81C23.8356 112.81 22.384 114.262 22.384 116.053H23.884ZM25.6263 114.31C26.5886 114.31 27.3686 115.09 27.3686 116.053H28.8686C28.8686 114.262 27.417 112.81 25.6263 112.81V114.31Z" fill="url(#paint1_linear_8922_7551)"/>
</g>
<g filter="url(#filter2_d_8922_7551)">
<path d="M59.0633 56.234H202.68C204.091 56.234 205.444 56.7944 206.442 57.792C207.439 58.7895 207.999 60.1425 207.999 61.5532V88.1489C207.999 89.5597 207.439 90.9126 206.442 91.9101C205.444 92.9077 204.091 93.4681 202.68 93.4681H59.0633C57.6526 93.4681 56.2996 92.9077 55.3021 91.9101C54.3045 90.9126 53.7441 89.5597 53.7441 88.1489V61.5532C53.7441 60.1425 54.3045 58.7895 55.3021 57.792C56.2996 56.7944 57.6526 56.234 59.0633 56.234V56.234Z" fill="white"/>
<path d="M127.149 64.7447H99.4893C97.7267 64.7447 96.2979 66.1736 96.2979 67.9362C96.2979 69.6988 97.7267 71.1277 99.4893 71.1277H127.149C128.912 71.1277 130.34 69.6988 130.34 67.9362C130.34 66.1736 128.912 64.7447 127.149 64.7447Z" fill="#EDF6FF"/>
<path d="M146.298 78.5745H99.4893C97.7267 78.5745 96.2979 80.0034 96.2979 81.766C96.2979 83.5286 97.7267 84.9575 99.4893 84.9575H146.298C148.06 84.9575 149.489 83.5286 149.489 81.766C149.489 80.0034 148.06 78.5745 146.298 78.5745Z" fill="#DEE9FC"/>
<path d="M82.5319 59.851H62.3191C59.3815 59.851 57 62.2325 57 65.1702V85.383C57 88.3206 59.3815 90.7021 62.3191 90.7021H82.5319C85.4696 90.7021 87.8511 88.3206 87.8511 85.383V65.1702C87.8511 62.2325 85.4696 59.851 82.5319 59.851Z" fill="#F9FCFF"/>
<path d="M68.5853 80.9934C68.1923 81.1244 67.98 81.5491 68.1109 81.9421C68.2419 82.335 68.6667 82.5474 69.0596 82.4164L68.5853 80.9934ZM73.4955 82.0164L73.4275 81.2695L73.4955 82.0164ZM76.2994 81.3933L76.6283 82.0674L76.2994 81.3933ZM78.9785 78.9562L78.3957 78.4841H78.3957L78.9785 78.9562ZM77.1461 77.4312L77.6765 77.9615L77.1461 77.4312ZM75.9123 78.6651L76.4426 79.1954V79.1954L75.9123 78.6651ZM72.5609 78.4626C72.1467 78.4626 71.8109 78.7984 71.8109 79.2126C71.8109 79.6268 72.1467 79.9626 72.5609 79.9626V78.4626ZM78.6936 77.278L78.2776 77.902L78.6936 77.278ZM69.7708 76.8692L70.1062 77.54H70.1062L69.7708 76.8692ZM73.1244 76.5624L73.3218 75.8388L73.1244 76.5624ZM74.4341 76.9196L74.2367 77.6432L74.4341 76.9196ZM74.849 78.4821L74.3187 77.9518L74.849 78.4821ZM73.5883 78.6822C73.2954 78.9751 73.2954 79.45 73.5883 79.7429C73.8812 80.0358 74.3561 80.0358 74.6489 79.7429L73.5883 78.6822ZM69.0596 82.4164C69.1472 82.3872 69.3357 82.366 69.6745 82.3902C69.998 82.4133 70.376 82.4699 70.809 82.538C71.6309 82.667 72.6712 82.8446 73.5636 82.7633L73.4275 81.2695C72.7622 81.3301 71.9333 81.1962 71.0417 81.0561C70.618 80.9896 70.1782 80.9223 69.7812 80.894C69.3996 80.8668 68.965 80.8668 68.5853 80.9934L69.0596 82.4164ZM73.5636 82.7633C74.1365 82.7111 74.6257 82.6863 75.0762 82.6047C75.5648 82.5163 76.0228 82.3629 76.6283 82.0674L75.9705 80.7193C75.461 80.968 75.1348 81.0698 74.8091 81.1287C74.4454 81.1945 74.0902 81.2091 73.4275 81.2695L73.5636 82.7633ZM76.6283 82.0674C77.2159 81.7806 77.7826 81.3183 78.2694 80.8505C78.7635 80.3758 79.2121 79.8594 79.5613 79.4282L78.3957 78.4841C78.0699 78.8864 77.6642 79.3518 77.2301 79.7689C76.7888 80.1929 76.3535 80.5324 75.9705 80.7193L76.6283 82.0674ZM76.6158 76.9009L75.3819 78.1348L76.4426 79.1954L77.6765 77.9615L76.6158 76.9009ZM74.5905 78.4626H72.5609V79.9626H74.5905V78.4626ZM75.3819 78.1348C75.172 78.3447 74.8873 78.4626 74.5905 78.4626V79.9626C75.2852 79.9626 75.9514 79.6866 76.4426 79.1954L75.3819 78.1348ZM79.1097 76.6539C78.3258 76.1313 77.282 76.2347 76.6158 76.9009L77.6765 77.9615C77.837 77.801 78.0887 77.776 78.2776 77.902L79.1097 76.6539ZM79.5613 79.4282C80.2909 78.5274 80.0162 77.2583 79.1097 76.6539L78.2776 77.902C78.5078 78.0555 78.5259 78.3233 78.3957 78.4841L79.5613 79.4282ZM65.3955 76.8472H67.8878V75.3472H65.3955V76.8472ZM67.7609 76.7203V82.328H69.2609V76.7203H67.7609ZM67.8878 82.201H65.3955V83.701H67.8878V82.201ZM65.5225 82.328V76.7203H64.0225V82.328H65.5225ZM65.3955 82.201C65.4656 82.201 65.5225 82.2579 65.5225 82.328H64.0225C64.0225 83.0863 64.6372 83.701 65.3955 83.701V82.201ZM67.7609 82.328C67.7609 82.2579 67.8177 82.201 67.8878 82.201V83.701C68.6462 83.701 69.2609 83.0863 69.2609 82.328H67.7609ZM67.8878 76.8472C67.8177 76.8472 67.7609 76.7904 67.7609 76.7203H69.2609C69.2609 75.9619 68.6462 75.3472 67.8878 75.3472V76.8472ZM65.3955 75.3472C64.6372 75.3472 64.0225 75.9619 64.0225 76.7203H65.5225C65.5225 76.7904 65.4656 76.8472 65.3955 76.8472V75.3472ZM69.1579 78.0142L70.1062 77.54L69.4354 76.1984L68.4871 76.6725L69.1579 78.0142ZM71.7213 77.1587H71.9768V75.6587H71.7213V77.1587ZM72.9271 77.286L74.2367 77.6432L74.6314 76.196L73.3218 75.8388L72.9271 77.286ZM74.3187 77.9518L73.5883 78.6822L74.6489 79.7429L75.3794 79.0125L74.3187 77.9518ZM74.2367 77.6432C74.3735 77.6805 74.4189 77.8516 74.3187 77.9518L75.3794 79.0125C76.294 78.0978 75.8793 76.5364 74.6314 76.196L74.2367 77.6432ZM71.9768 77.1587C72.2978 77.1587 72.6174 77.2015 72.9271 77.286L73.3218 75.8388C72.8835 75.7193 72.4312 75.6587 71.9768 75.6587V77.1587ZM70.1062 77.54C70.6077 77.2893 71.1606 77.1587 71.7213 77.1587V75.6587C70.9278 75.6587 70.1451 75.8435 69.4354 76.1984L70.1062 77.54ZM75.8609 71.7357C75.8609 72.6979 75.0809 73.478 74.1186 73.478V74.978C75.9093 74.978 77.3609 73.5263 77.3609 71.7357H75.8609ZM74.1186 73.478C73.1564 73.478 72.3763 72.6979 72.3763 71.7357H70.8763C70.8763 73.5263 72.3279 74.978 74.1186 74.978V73.478ZM72.3763 71.7357C72.3763 70.7734 73.1564 69.9933 74.1186 69.9933V68.4933C72.3279 68.4933 70.8763 69.945 70.8763 71.7357H72.3763ZM74.1186 69.9933C75.0809 69.9933 75.8609 70.7734 75.8609 71.7357H77.3609C77.3609 69.945 75.9093 68.4933 74.1186 68.4933V69.9933ZM71.6263 70.9857C70.6641 70.9857 69.884 70.2056 69.884 69.2433H68.384C68.384 71.034 69.8356 72.4857 71.6263 72.4857V70.9857ZM69.884 69.2433C69.884 68.2811 70.6641 67.501 71.6263 67.501V66.001C69.8356 66.001 68.384 67.4527 68.384 69.2433H69.884ZM71.6263 67.501C72.5886 67.501 73.3686 68.2811 73.3686 69.2433H74.8686C74.8686 67.4527 73.417 66.001 71.6263 66.001V67.501Z" fill="url(#paint2_linear_8922_7551)"/>
</g>
<defs>
<filter id="filter0_d_8922_7551" x="0.436965" y="5.21848" width="169.381" height="52.3601" filterUnits="userSpaceOnUse" color-interpolation-filters="sRGB">
<feFlood flood-opacity="0" result="BackgroundImageFix"/>
<feColorMatrix in="SourceAlpha" type="matrix" values="0 0 0 0 0 0 0 0 0 0 0 0 0 0 0 0 0 0 127 0" result="hardAlpha"/>
<feOffset dy="3.78152"/>
<feGaussianBlur stdDeviation="3.78152"/>
<feComposite in2="hardAlpha" operator="out"/>
<feColorMatrix type="matrix" values="0 0 0 0 0 0 0 0 0 0 0 0 0 0 0 0 0 0 0.08 0"/>
<feBlend mode="normal" in2="BackgroundImageFix" result="effect1_dropShadow_8922_7551"/>
<feBlend mode="normal" in="SourceGraphic" in2="effect1_dropShadow_8922_7551" result="shape"/>
</filter>
<filter id="filter1_d_8922_7551" x="0.436965" y="99.6866" width="169.381" height="52.3601" filterUnits="userSpaceOnUse" color-interpolation-filters="sRGB">
<feFlood flood-opacity="0" result="BackgroundImageFix"/>
<feColorMatrix in="SourceAlpha" type="matrix" values="0 0 0 0 0 0 0 0 0 0 0 0 0 0 0 0 0 0 127 0" result="hardAlpha"/>
<feOffset dy="3.78152"/>
<feGaussianBlur stdDeviation="3.78152"/>
<feComposite in2="hardAlpha" operator="out"/>
<feColorMatrix type="matrix" values="0 0 0 0 0 0 0 0 0 0 0 0 0 0 0 0 0 0 0.08 0"/>
<feBlend mode="normal" in2="BackgroundImageFix" result="effect1_dropShadow_8922_7551"/>
<feBlend mode="normal" in="SourceGraphic" in2="effect1_dropShadow_8922_7551" result="shape"/>
</filter>
<filter id="filter2_d_8922_7551" x="46.1811" y="52.4525" width="169.381" height="52.3601" filterUnits="userSpaceOnUse" color-interpolation-filters="sRGB">
<feFlood flood-opacity="0" result="BackgroundImageFix"/>
<feColorMatrix in="SourceAlpha" type="matrix" values="0 0 0 0 0 0 0 0 0 0 0 0 0 0 0 0 0 0 127 0" result="hardAlpha"/>
<feOffset dy="3.78152"/>
<feGaussianBlur stdDeviation="3.78152"/>
<feComposite in2="hardAlpha" operator="out"/>
<feColorMatrix type="matrix" values="0 0 0 0 0 0 0 0 0 0 0 0 0 0 0 0 0 0 0.08 0"/>
<feBlend mode="normal" in2="BackgroundImageFix" result="effect1_dropShadow_8922_7551"/>
<feBlend mode="normal" in="SourceGraphic" in2="effect1_dropShadow_8922_7551" result="shape"/>
</filter>
<linearGradient id="paint0_linear_8922_7551" x1="18.7725" y1="19.5356" x2="36.2818" y2="24.5389" gradientUnits="userSpaceOnUse">
<stop offset="0.307292" stop-color="#027DFF" stop-opacity="0.9"/>
<stop offset="0.494792" stop-color="#8C01E8" stop-opacity="0.9"/>
<stop offset="0.958333" stop-color="#6275E9"/>
</linearGradient>
<linearGradient id="paint1_linear_8922_7551" x1="18.7725" y1="113.834" x2="36.2818" y2="118.838" gradientUnits="userSpaceOnUse">
<stop offset="0.307292" stop-color="#027DFF" stop-opacity="0.9"/>
<stop offset="0.494792" stop-color="#8C01E8" stop-opacity="0.9"/>
<stop offset="0.958333" stop-color="#6275E9"/>
</linearGradient>
<linearGradient id="paint2_linear_8922_7551" x1="64.7725" y1="67.025" x2="82.2818" y2="72.0283" gradientUnits="userSpaceOnUse">
<stop offset="0.307292" stop-color="#027DFF" stop-opacity="0.9"/>
<stop offset="0.494792" stop-color="#8C01E8" stop-opacity="0.9"/>
<stop offset="0.958333" stop-color="#6275E9"/>
</linearGradient>
</defs>
</svg>
