<svg width="48" height="48" viewBox="0 0 48 48" fill="none" xmlns="http://www.w3.org/2000/svg">
<rect width="48" height="48" rx="24" fill="#F8F8F8"/>
<path d="M19.5637 31.9377C19.0398 32.1123 18.7566 32.6786 18.9313 33.2026C19.1059 33.7265 19.6722 34.0097 20.1962 33.835L19.5637 31.9377ZM25.9388 33.2903L25.8481 32.2944L25.9388 33.2903ZM29.5742 32.4824L30.0127 33.3811L29.5742 32.4824ZM33.0478 29.3225L32.2707 28.6931L33.0478 29.3225ZM30.672 27.3453L31.3791 28.0524L30.672 27.3453ZM29.0722 28.9451L29.7793 29.6522H29.7793L29.0722 28.9451ZM24.727 28.655C24.1748 28.655 23.727 29.1027 23.727 29.655C23.727 30.2072 24.1748 30.655 24.727 30.655V28.655ZM32.6784 27.1466L32.1237 27.9787L32.6784 27.1466ZM21.1095 26.6166L21.5567 27.5111H21.5567L21.1095 26.6166ZM25.4577 26.2189L25.7208 25.2541L25.4577 26.2189ZM27.1557 26.682L26.8926 27.6467L27.1557 26.682ZM27.6937 28.7079L26.9866 28.0008H26.9866L27.6937 28.7079ZM26.0396 28.9478C25.649 29.3384 25.649 29.9715 26.0396 30.3621C26.4301 30.7526 27.0633 30.7526 27.4538 30.3621L26.0396 28.9478ZM20.1962 33.835C20.3043 33.799 20.5442 33.7711 20.9827 33.8024C21.4008 33.8322 21.8897 33.9055 22.4513 33.9937C23.5156 34.1609 24.8683 34.3919 26.0296 34.2862L25.8481 32.2944C24.9897 32.3726 23.9188 32.1997 22.7616 32.018C22.2124 31.9317 21.641 31.8443 21.125 31.8075C20.6294 31.7721 20.0614 31.7718 19.5637 31.9377L20.1962 33.835ZM26.0296 34.2862C26.7708 34.2186 27.4074 34.1862 27.9932 34.0802C28.6296 33.965 29.2258 33.7651 30.0127 33.3811L29.1356 31.5837C28.4768 31.9052 28.0564 32.0363 27.637 32.1122C27.1671 32.1972 26.7089 32.216 25.8481 32.2944L26.0296 34.2862ZM30.0127 33.3811C30.7783 33.0075 31.5155 32.4058 32.1475 31.7985C32.7892 31.182 33.3716 30.5115 33.8249 29.9519L32.2707 28.6931C31.8487 29.2142 31.3235 29.8167 30.7618 30.3564C30.1905 30.9053 29.6284 31.3432 29.1356 31.5837L30.0127 33.3811ZM29.9649 26.6382L28.3651 28.238L29.7793 29.6522L31.3791 28.0524L29.9649 26.6382ZM27.3585 28.655H24.727V30.655H27.3585V28.655ZM28.3651 28.238C28.0981 28.505 27.7361 28.655 27.3585 28.655V30.655C28.2665 30.655 29.1373 30.2943 29.7793 29.6522L28.3651 28.238ZM33.2331 26.3146C32.2058 25.6297 30.8379 25.7652 29.9649 26.6382L31.3791 28.0524C31.578 27.8535 31.8897 27.8227 32.1237 27.9787L33.2331 26.3146ZM33.8249 29.9519C34.7818 28.7704 34.4209 27.1064 33.2331 26.3146L32.1237 27.9787C32.4097 28.1693 32.4285 28.4983 32.2707 28.6931L33.8249 29.9519ZM15.4368 26.6157H18.6682V24.6157H15.4368V26.6157ZM18.476 26.4235V33.6942H20.476V26.4235H18.476ZM18.6682 33.5021H15.4368V35.5021H18.6682V33.5021ZM15.6289 33.6942V26.4235H13.6289V33.6942H15.6289ZM15.4368 33.5021C15.5429 33.5021 15.6289 33.5881 15.6289 33.6942H13.6289C13.6289 34.6927 14.4383 35.5021 15.4368 35.5021V33.5021ZM18.476 33.6942C18.476 33.5881 18.562 33.5021 18.6682 33.5021V35.5021C19.6666 35.5021 20.476 34.6927 20.476 33.6942H18.476ZM18.6682 26.6157C18.562 26.6157 18.476 26.5297 18.476 26.4235H20.476C20.476 25.4251 19.6666 24.6157 18.6682 24.6157V26.6157ZM15.4368 24.6157C14.4383 24.6157 13.6289 25.4251 13.6289 26.4235H15.6289C15.6289 26.5297 15.5429 26.6157 15.4368 26.6157V24.6157ZM20.3272 28.1258L21.5567 27.5111L20.6623 25.7222L19.4327 26.337L20.3272 28.1258ZM23.6384 27.0196H23.9697V25.0196H23.6384V27.0196ZM25.1945 27.1836L26.8926 27.6467L27.4188 25.7172L25.7208 25.2541L25.1945 27.1836ZM26.9866 28.0008L26.0396 28.9478L27.4538 30.3621L28.4008 29.415L26.9866 28.0008ZM26.8926 27.6467C27.0495 27.6895 27.1016 27.8858 26.9866 28.0008L28.4008 29.415C29.6017 28.2142 29.0572 26.1641 27.4188 25.7172L26.8926 27.6467ZM23.9697 27.0196C24.3835 27.0196 24.7954 27.0748 25.1945 27.1836L25.7208 25.2541C25.1501 25.0985 24.5613 25.0196 23.9697 25.0196V27.0196ZM21.5567 27.5111C22.2031 27.1879 22.9158 27.0196 23.6384 27.0196V25.0196C22.6053 25.0196 21.5863 25.2602 20.6623 25.7222L21.5567 27.5111ZM28.9781 19.9607C28.9781 21.1931 27.979 22.1921 26.7467 22.1921V24.1921C29.0836 24.1921 30.9781 22.2977 30.9781 19.9607H28.9781ZM26.7467 22.1921C25.5143 22.1921 24.5153 21.1931 24.5153 19.9607H22.5153C22.5153 22.2977 24.4097 24.1921 26.7467 24.1921V22.1921ZM24.5153 19.9607C24.5153 18.7284 25.5143 17.7293 26.7467 17.7293V15.7293C24.4097 15.7293 22.5153 17.6238 22.5153 19.9607H24.5153ZM26.7467 17.7293C27.979 17.7293 28.9781 18.7284 28.9781 19.9607H30.9781C30.9781 17.6238 29.0836 15.7293 26.7467 15.7293V17.7293ZM23.5153 18.9607C22.2829 18.9607 21.2839 17.9617 21.2839 16.7293H19.2839C19.2839 19.0663 21.1783 20.9607 23.5153 20.9607V18.9607ZM21.2839 16.7293C21.2839 15.497 22.2829 14.4979 23.5153 14.4979V12.4979C21.1783 12.4979 19.2839 14.3924 19.2839 16.7293H21.2839ZM23.5153 14.4979C24.7476 14.4979 25.7467 15.497 25.7467 16.7293H27.7467C27.7467 14.3924 25.8522 12.4979 23.5153 12.4979V14.4979Z" fill="url(#paint0_linear_9239_7596)"/>
<defs>
<linearGradient id="paint0_linear_9239_7596" x1="14.6289" y1="13.8531" x2="37.3307" y2="20.3401" gradientUnits="userSpaceOnUse">
<stop offset="0.307292" stop-color="#027DFF" stop-opacity="0.9"/>
<stop offset="0.494792" stop-color="#8C01E8" stop-opacity="0.9"/>
<stop offset="0.958333" stop-color="#6275E9"/>
</linearGradient>
</defs>
</svg>
