<svg width="216" height="153" viewBox="0 0 216 153" fill="none" xmlns="http://www.w3.org/2000/svg">
<path d="M172.298 0H44.6383C38.7629 0 34 4.76293 34 10.6383V138.298C34 144.173 38.7629 148.936 44.6383 148.936H172.298C178.173 148.936 182.936 144.173 182.936 138.298V10.6383C182.936 4.76293 178.173 0 172.298 0Z" fill="#EDF6FF"/>
<g filter="url(#filter0_d_8940_2172)">
<path d="M156.936 9H13.3191C10.3815 9 8 11.3815 8 14.3191V40.9149C8 43.8526 10.3815 46.234 13.3191 46.234H156.936C159.874 46.234 162.255 43.8526 162.255 40.9149V14.3191C162.255 11.3815 159.874 9 156.936 9Z" fill="white"/>
<path d="M81.4048 17.5107H53.7452C51.9826 17.5107 50.5537 18.9395 50.5537 20.7021C50.5537 22.4648 51.9826 23.8936 53.7452 23.8936H81.4048C83.1674 23.8936 84.5963 22.4648 84.5963 20.7021C84.5963 18.9395 83.1674 17.5107 81.4048 17.5107Z" fill="#EDF6FF"/>
<path d="M100.554 31.3404H53.7452C51.9826 31.3404 50.5537 32.7693 50.5537 34.5319C50.5537 36.2945 51.9826 37.7234 53.7452 37.7234H100.554C102.316 37.7234 103.745 36.2945 103.745 34.5319C103.745 32.7693 102.316 31.3404 100.554 31.3404Z" fill="#DEE9FC"/>
<path d="M36.5319 12.3617H16.3191C13.3815 12.3617 11 14.7432 11 17.6808V37.8936C11 40.8313 13.3815 43.2128 16.3191 43.2128H36.5319C39.4696 43.2128 41.8511 40.8313 41.8511 37.8936V17.6808C41.8511 14.7432 39.4696 12.3617 36.5319 12.3617Z" fill="#FBFBFB"/>
<path d="M33.1489 23.7617H18.8507M28.2495 26.2367C26.4922 26.2367 23.7495 26.2367 23.7495 26.2367M33.1998 24.1866V32.7617C33.1998 33.7558 32.3939 34.5617 31.3998 34.5617H20.5998C19.6057 34.5617 18.7998 33.7558 18.7998 32.7617V24.1866C18.7998 23.9072 18.8649 23.6316 18.9898 23.3816L20.2267 20.9079C20.4554 20.4506 20.9228 20.1617 21.4342 20.1617H30.5655C31.0768 20.1617 31.5443 20.4506 31.7729 20.9079L33.0098 23.3816C33.1347 23.6316 33.1998 23.9072 33.1998 24.1866Z" stroke="url(#paint0_linear_8940_2172)" stroke-width="1.5" stroke-linecap="round" stroke-linejoin="round"/>
</g>
<g filter="url(#filter1_d_8940_2172)">
<path d="M202.936 56.23H59.3191C56.3815 56.23 54 58.6115 54 61.5492V88.1449C54 91.0826 56.3815 93.4641 59.3191 93.4641H202.936C205.874 93.4641 208.255 91.0826 208.255 88.1449V61.5492C208.255 58.6115 205.874 56.23 202.936 56.23Z" fill="white"/>
<path d="M127.405 64.7407H99.7452C97.9826 64.7407 96.5537 66.1695 96.5537 67.9322C96.5537 69.6948 97.9826 71.1236 99.7452 71.1236H127.405C129.167 71.1236 130.596 69.6948 130.596 67.9322C130.596 66.1695 129.167 64.7407 127.405 64.7407Z" fill="#EDF6FF"/>
<path d="M146.554 78.5704H99.7452C97.9826 78.5704 96.5537 79.9993 96.5537 81.7619C96.5537 83.5245 97.9826 84.9534 99.7452 84.9534H146.554C148.316 84.9534 149.745 83.5245 149.745 81.7619C149.745 79.9993 148.316 78.5704 146.554 78.5704Z" fill="#DEE9FC"/>
<path d="M82.5319 59.5917H62.3191C59.3815 59.5917 57 61.9732 57 64.9109V85.1236C57 88.0613 59.3815 90.4428 62.3191 90.4428H82.5319C85.4696 90.4428 87.8511 88.0613 87.8511 85.1236V64.9109C87.8511 61.9732 85.4696 59.5917 82.5319 59.5917Z" fill="#FBFBFB"/>
<path d="M79.1489 70.9917H64.8507M74.2495 73.4667C72.4922 73.4667 69.7495 73.4667 69.7495 73.4667M79.1998 71.4166V79.9917C79.1998 80.9858 78.3939 81.7917 77.3998 81.7917H66.5998C65.6057 81.7917 64.7998 80.9858 64.7998 79.9917V71.4166C64.7998 71.1372 64.8649 70.8616 64.9898 70.6116L66.2267 68.138C66.4554 67.6806 66.9228 67.3917 67.4342 67.3917H76.5655C77.0768 67.3917 77.5443 67.6806 77.7729 68.138L79.0098 70.6116C79.1347 70.8616 79.1998 71.1372 79.1998 71.4166Z" stroke="url(#paint1_linear_8940_2172)" stroke-width="1.5" stroke-linecap="round" stroke-linejoin="round"/>
</g>
<g filter="url(#filter2_d_8940_2172)">
<path d="M13.3191 103.468H156.936C158.347 103.468 159.7 104.028 160.697 105.026C161.695 106.024 162.255 107.377 162.255 108.787V135.383C162.255 136.794 161.695 138.147 160.697 139.144C159.7 140.142 158.347 140.702 156.936 140.702H13.3191C11.9084 140.702 10.5555 140.142 9.55794 139.144C8.56041 138.147 8 136.794 8 135.383V108.787C8 107.377 8.56041 106.024 9.55794 105.026C10.5555 104.028 11.9084 103.468 13.3191 103.468V103.468Z" fill="white"/>
<path d="M81.4048 111.979H53.7452C51.9826 111.979 50.5537 113.408 50.5537 115.17C50.5537 116.933 51.9826 118.362 53.7452 118.362H81.4048C83.1674 118.362 84.5963 116.933 84.5963 115.17C84.5963 113.408 83.1674 111.979 81.4048 111.979Z" fill="#EDF6FF"/>
<path d="M100.554 125.809H53.7452C51.9826 125.809 50.5537 127.237 50.5537 129C50.5537 130.763 51.9826 132.191 53.7452 132.191H100.554C102.316 132.191 103.745 130.763 103.745 129C103.745 127.237 102.316 125.809 100.554 125.809Z" fill="#DEE9FC"/>
<path d="M36.5319 106.66H16.3191C13.3815 106.66 11 109.042 11 111.98V132.192C11 135.13 13.3815 137.511 16.3191 137.511H36.5319C39.4696 137.511 41.8511 135.13 41.8511 132.192V111.98C41.8511 109.042 39.4696 106.66 36.5319 106.66Z" fill="#FBFBFB"/>
<path d="M33.1489 118.06H18.8507M28.2495 120.535C26.4922 120.535 23.7495 120.535 23.7495 120.535M33.1998 118.485V127.06C33.1998 128.055 32.3939 128.86 31.3998 128.86H20.5998C19.6057 128.86 18.7998 128.055 18.7998 127.06V118.485C18.7998 118.206 18.8649 117.93 18.9898 117.68L20.2267 115.207C20.4554 114.749 20.9228 114.46 21.4342 114.46H30.5655C31.0768 114.46 31.5443 114.749 31.7729 115.207L33.0098 117.68C33.1347 117.93 33.1998 118.206 33.1998 118.485Z" stroke="url(#paint2_linear_8940_2172)" stroke-width="1.5" stroke-linecap="round" stroke-linejoin="round"/>
</g>
<defs>
<filter id="filter0_d_8940_2172" x="0.436965" y="5.21848" width="169.381" height="52.3601" filterUnits="userSpaceOnUse" color-interpolation-filters="sRGB">
<feFlood flood-opacity="0" result="BackgroundImageFix"/>
<feColorMatrix in="SourceAlpha" type="matrix" values="0 0 0 0 0 0 0 0 0 0 0 0 0 0 0 0 0 0 127 0" result="hardAlpha"/>
<feOffset dy="3.78152"/>
<feGaussianBlur stdDeviation="3.78152"/>
<feComposite in2="hardAlpha" operator="out"/>
<feColorMatrix type="matrix" values="0 0 0 0 0 0 0 0 0 0 0 0 0 0 0 0 0 0 0.08 0"/>
<feBlend mode="normal" in2="BackgroundImageFix" result="effect1_dropShadow_8940_2172"/>
<feBlend mode="normal" in="SourceGraphic" in2="effect1_dropShadow_8940_2172" result="shape"/>
</filter>
<filter id="filter1_d_8940_2172" x="46.437" y="52.4485" width="169.381" height="52.3601" filterUnits="userSpaceOnUse" color-interpolation-filters="sRGB">
<feFlood flood-opacity="0" result="BackgroundImageFix"/>
<feColorMatrix in="SourceAlpha" type="matrix" values="0 0 0 0 0 0 0 0 0 0 0 0 0 0 0 0 0 0 127 0" result="hardAlpha"/>
<feOffset dy="3.78152"/>
<feGaussianBlur stdDeviation="3.78152"/>
<feComposite in2="hardAlpha" operator="out"/>
<feColorMatrix type="matrix" values="0 0 0 0 0 0 0 0 0 0 0 0 0 0 0 0 0 0 0.08 0"/>
<feBlend mode="normal" in2="BackgroundImageFix" result="effect1_dropShadow_8940_2172"/>
<feBlend mode="normal" in="SourceGraphic" in2="effect1_dropShadow_8940_2172" result="shape"/>
</filter>
<filter id="filter2_d_8940_2172" x="0.436965" y="99.6866" width="169.381" height="52.3601" filterUnits="userSpaceOnUse" color-interpolation-filters="sRGB">
<feFlood flood-opacity="0" result="BackgroundImageFix"/>
<feColorMatrix in="SourceAlpha" type="matrix" values="0 0 0 0 0 0 0 0 0 0 0 0 0 0 0 0 0 0 127 0" result="hardAlpha"/>
<feOffset dy="3.78152"/>
<feGaussianBlur stdDeviation="3.78152"/>
<feComposite in2="hardAlpha" operator="out"/>
<feColorMatrix type="matrix" values="0 0 0 0 0 0 0 0 0 0 0 0 0 0 0 0 0 0 0.08 0"/>
<feBlend mode="normal" in2="BackgroundImageFix" result="effect1_dropShadow_8940_2172"/>
<feBlend mode="normal" in="SourceGraphic" in2="effect1_dropShadow_8940_2172" result="shape"/>
</filter>
<linearGradient id="paint0_linear_8940_2172" x1="18.7998" y1="20.4052" x2="35.9116" y2="25.8851" gradientUnits="userSpaceOnUse">
<stop offset="0.307292" stop-color="#027DFF" stop-opacity="0.9"/>
<stop offset="0.494792" stop-color="#8C01E8" stop-opacity="0.9"/>
<stop offset="0.958333" stop-color="#6275E9"/>
</linearGradient>
<linearGradient id="paint1_linear_8940_2172" x1="64.7998" y1="67.6352" x2="81.9116" y2="73.1151" gradientUnits="userSpaceOnUse">
<stop offset="0.307292" stop-color="#027DFF" stop-opacity="0.9"/>
<stop offset="0.494792" stop-color="#8C01E8" stop-opacity="0.9"/>
<stop offset="0.958333" stop-color="#6275E9"/>
</linearGradient>
<linearGradient id="paint2_linear_8940_2172" x1="18.7998" y1="114.704" x2="35.9116" y2="120.184" gradientUnits="userSpaceOnUse">
<stop offset="0.307292" stop-color="#027DFF" stop-opacity="0.9"/>
<stop offset="0.494792" stop-color="#8C01E8" stop-opacity="0.9"/>
<stop offset="0.958333" stop-color="#6275E9"/>
</linearGradient>
</defs>
</svg>
