<svg width="21" height="20" viewBox="0 0 21 20" fill="none" xmlns="http://www.w3.org/2000/svg">
<path d="M8.29412 13.5V15.25C8.29412 15.7141 8.48004 16.1592 8.81099 16.4874C9.14194 16.8156 9.59079 17 10.0588 17L16.2353 17C16.7033 17 17.1522 16.8156 17.4831 16.4874C17.8141 16.1592 18 15.7141 18 15.25L18 4.75C18 4.28587 17.8141 3.84075 17.4831 3.51256C17.1522 3.18438 16.7033 3 16.2353 3L10.0588 3C9.5908 3 9.14194 3.18437 8.81099 3.51256C8.48004 3.84075 8.29412 4.28587 8.29412 4.75V6.5M13.5882 10L3 10M3 10L5.64706 12.625M3 10L5.64706 7.375" stroke="#CB1313" stroke-width="2" stroke-linecap="round" stroke-linejoin="round"/>
</svg>
