<svg width="18" height="19" viewBox="0 0 18 19" fill="none" xmlns="http://www.w3.org/2000/svg">
<path d="M4.9498 15.8V11.75C4.9498 11.2529 5.35275 10.85 5.8498 10.85H12.1498C12.6469 10.85 13.0498 11.2529 13.0498 11.75V16.25M13.0498 3.2V5C13.0498 5.49706 12.6469 5.9 12.1498 5.9L5.8498 5.9C5.35275 5.9 4.9498 5.49705 4.9498 5L4.9498 2.3M15.7479 5.4481L13.0517 2.7519C12.7624 2.46255 12.3699 2.3 11.9607 2.3H3.34266C2.49055 2.3 1.7998 2.99075 1.7998 3.84286V15.1571C1.7998 16.0092 2.49055 16.7 3.34266 16.7H14.6569C15.5091 16.7 16.1998 16.0092 16.1998 15.1571V6.53906C16.1998 6.12987 16.0373 5.73744 15.7479 5.4481Z" stroke="#027DFF" stroke-width="1.5" stroke-linecap="round"/>
</svg>
