<svg width="24" height="24" viewBox="0 0 24 24" fill="none" xmlns="http://www.w3.org/2000/svg">
<path d="M19.2004 13.6857C20.4677 14.6326 21.6004 17.0167 21.6004 18.4857C21.6004 18.9433 21.2665 19.3143 20.8546 19.3143H20.4004M15.6004 9.80448C16.4202 9.33023 16.9718 8.44382 16.9718 7.42857C16.9718 6.41333 16.4202 5.52691 15.6004 5.05266M3.14616 19.3143H16.2832C16.6951 19.3143 17.029 18.9433 17.029 18.4857C17.029 15.609 14.6257 13.2771 9.71468 13.2771C4.80366 13.2771 2.40039 15.609 2.40039 18.4857C2.40039 18.9433 2.73428 19.3143 3.14616 19.3143ZM12.4575 7.42857C12.4575 8.94341 11.2295 10.1714 9.71468 10.1714C8.19984 10.1714 6.97182 8.94341 6.97182 7.42857C6.97182 5.91373 8.19984 4.68571 9.71468 4.68571C11.2295 4.68571 12.4575 5.91373 12.4575 7.42857Z" stroke="url(#paint0_linear_7820_7002)" stroke-width="2" stroke-linecap="round"/>
<defs>
<linearGradient id="paint0_linear_7820_7002" x1="2.40039" y1="4.93306" x2="23.7791" y2="13.9189" gradientUnits="userSpaceOnUse">
<stop offset="0.307292" stop-color="#027DFF" stop-opacity="0.9"/>
<stop offset="0.494792" stop-color="#8C01E8" stop-opacity="0.9"/>
<stop offset="0.958333" stop-color="#6275E9"/>
</linearGradient>
</defs>
</svg>
