<svg width="104" height="36" viewBox="0 0 104 36" fill="none" xmlns="http://www.w3.org/2000/svg">
<g clip-path="url(#clip0_8651_403)">
<path d="M93.0691 35.9551C96.5136 35.9551 99.1902 34.9605 101.101 32.9519C103.011 30.9442 103.948 28.1619 103.948 24.5179C103.948 20.8732 103.003 18.0254 101.101 16.017C99.1989 14.0086 96.5136 13.0345 93.0691 13.0345C89.6238 13.0345 86.9367 14.0287 85.0369 16.017C83.138 18.0053 82.1898 20.8532 82.1898 24.5179C82.1898 28.1821 83.1354 30.9864 85.0369 32.9748C86.9394 34.9631 89.601 35.9551 93.0691 35.9551ZM93.0691 31.5629C88.966 31.5629 86.9901 29.3079 86.9901 24.5179C86.9901 19.6814 88.966 17.4523 93.0691 17.4523C97.1714 17.4523 99.1246 19.6814 99.1246 24.5179C99.1246 29.2876 97.1286 31.5629 93.0691 31.5629Z" fill="#027DFF"/>
<path d="M63.3369 29.0158C60.5151 31.9266 61.3128 36.0899 64.8833 35.9517H78.7768C80.0521 35.9517 80.6897 35.3109 80.6897 34.0294V33.2962C80.6897 32.0164 80.0521 31.3756 78.7768 31.3738H68.6156C68.0007 31.3738 67.8415 31.0869 68.2054 30.7322L78.9648 19.9508C80.3285 18.461 80.8752 16.6761 80.6241 15.3496C80.374 14.0231 79.1756 13.0346 77.4446 13.0346H63.545C62.2689 13.0117 61.6347 13.6535 61.6347 14.9371V15.6446C61.6347 16.9282 62.2715 17.57 63.545 17.57H73.715C74.2844 17.57 74.4637 17.8565 74.1243 18.2318L63.3369 29.0158Z" fill="#027DFF"/>
<path d="M57.8421 13.0375C48.583 12.8713 47.2021 13.6936 46.9374 19.3836V34.0523C46.9374 34.3023 46.9864 34.5505 47.0815 34.7811C47.1768 35.0126 47.3163 35.2221 47.4921 35.399C47.6679 35.575 47.8767 35.7159 48.1064 35.8109C48.3361 35.906 48.5822 35.9553 48.8307 35.9553H50.0005C50.2489 35.9553 50.4956 35.906 50.7248 35.8109C50.9548 35.7159 51.1639 35.575 51.3397 35.399C51.5155 35.2221 51.6545 35.0126 51.7499 34.7811C51.8452 34.5505 51.8942 34.3023 51.8942 34.0523V19.9509C51.8863 19.4981 51.9091 19.0453 51.9624 18.5956C52 18.3197 52.1321 18.0657 52.3368 17.8783C52.5415 17.6907 52.8048 17.5816 53.0812 17.57H57.808C59.183 17.57 59.8687 16.9139 59.8687 15.6447V14.9169C59.8687 13.6707 59.1716 13.0175 57.8421 13.0375Z" fill="#027DFF"/>
<path d="M14.0503 28.7578C13.6915 29.8606 13.3584 30.5569 13.0453 30.8949C12.8854 31.0586 12.6935 31.1871 12.4818 31.2725C12.2702 31.3579 12.0433 31.3983 11.8153 31.3904C11.5975 31.3975 11.3809 31.357 11.1803 31.2716C10.9797 31.1862 10.8001 31.0577 10.6537 30.8949C10.3178 30.5569 9.9818 29.8606 9.6259 28.7578L5.15879 14.5874C4.84846 13.5531 4.15378 13.0374 3.05763 13.0374H1.78496C0.421239 13.0374 -0.208009 13.8454 0.2191 15.1719L5.11611 29.8835C5.91898 32.2442 6.79305 33.8409 7.70692 34.6744C8.62088 35.508 10.0102 35.9551 11.821 35.9551C13.6318 35.9551 15.0383 35.5282 15.9778 34.6744C16.9174 33.8206 17.7658 32.2442 18.5402 29.8835L23.4657 15.1719C23.8899 13.8454 23.2635 13.0374 21.8997 13.0374H20.6271C19.531 13.0145 18.8391 13.5302 18.5032 14.5874L14.0503 28.7578Z" fill="#027DFF"/>
<path d="M43.5831 24.8928C44.3717 24.142 44.7675 22.9502 44.7675 21.3374C44.7675 18.7101 43.9333 16.6559 42.2421 15.2005C40.5509 13.745 38.185 13.0345 35.1329 13.0345C28.0151 13.0345 24.2057 17.12 24.2057 24.5179C24.2057 28.242 25.1936 31.0753 27.1696 33.0179C28.8209 34.6797 30.9989 35.6514 33.6638 35.912L34.1507 35.9516C34.4838 35.9745 34.8197 35.9859 35.1642 35.9859H41.667C41.7291 35.9692 41.79 35.949 41.8492 35.9234C42.84 35.7914 43.3383 35.1585 43.3383 34.0292V33.296C43.3383 32.0162 42.7014 31.3755 41.4278 31.3737C41.4278 31.3737 35.5884 31.5744 33.6581 31.3737C31.3291 31.1299 29.9085 29.5684 29.3077 27.3882L39.2469 26.3513C41.3424 26.1304 42.7689 25.6436 43.5831 24.8928ZM29.0116 23.1051C29.3618 19.1083 31.3804 17.375 35.1329 17.375C38.4042 17.3521 40.0498 18.544 40.0498 20.9076C40.0498 21.7671 39.7651 22.0106 38.185 22.1882L29.0116 23.1051Z" fill="#027DFF"/>
<path fill-rule="evenodd" clip-rule="evenodd" d="M92.8924 0.0516771L92.4236 0.0522052L91.8874 0.0573103L89.782 0.0545817C89.5992 0.0537015 89.4182 0.0727137 89.2397 0.111354C89.0762 0.146562 88.9143 0.187755 88.7534 0.234846L88.7464 0.237486C88.6519 0.264948 88.5592 0.294171 88.4683 0.326562C87.2953 0.72001 86.2483 1.41959 85.4322 2.35374C85.3386 2.46491 85.2459 2.57863 85.1541 2.69482C84.9617 2.94576 84.7858 3.20938 84.6284 3.48374C83.7633 4.98781 83.4817 6.76044 83.8359 8.46115C83.8604 8.57972 83.8884 8.6981 83.919 8.81579C83.9269 8.84598 83.9356 8.87617 83.9444 8.90469C83.9505 8.92387 83.9593 8.9575 83.9671 8.99033C83.9715 9.00635 83.9759 9.02219 83.9794 9.03601L83.9899 9.07456C84.017 9.16232 84.045 9.24963 84.0756 9.33721C84.0843 9.36318 84.0948 9.38967 84.1045 9.41599C84.1158 9.44741 84.1281 9.47866 84.1377 9.50885C84.1788 9.61685 84.2208 9.72362 84.2671 9.82933C84.2724 9.84104 84.2794 9.8516 84.2881 9.86022C84.3852 9.95669 84.4946 10.0396 84.6135 10.1068C84.6669 10.138 84.7229 10.1658 84.7797 10.19C84.8304 10.212 84.8856 10.2228 84.9407 10.2217L85.9605 10.2235L92.8356 10.2228L93.7846 10.2194L94.2788 10.2192C94.822 10.2841 95.3713 10.2842 95.9144 10.2193C96.9247 10.1003 97.8974 9.76156 98.765 9.22675C99.6327 8.69185 100.374 7.97361 100.94 7.12167C101.006 7.02195 101.072 6.92002 101.134 6.81607L101.212 6.67955C101.297 6.53062 101.373 6.37844 101.446 6.22528L101.47 6.17291C101.91 5.22529 102.132 4.19071 102.121 3.14521L102.124 3.14108L102.123 3.11863C102.119 2.89453 102.108 2.66612 102.082 2.4466C102.089 2.44361 102.088 2.41967 102.087 2.39537C102.086 2.37064 102.085 2.34573 102.093 2.34221C102.023 1.59052 101.826 0.856352 101.512 0.171032L101.419 0.0101318L92.8924 0.0516771ZM87.9784 4.2936C87.3137 4.96722 86.9192 5.86387 86.8711 6.81193C86.865 6.91615 86.8641 7.01992 86.8711 7.12704L87.06 7.12599L89.077 7.12687L89.2616 7.12335L89.3281 7.12387L94.5403 7.12695C95.1124 7.17783 95.6888 7.10275 96.2302 6.90699C97.0253 6.6623 97.7198 6.16393 98.2087 5.48706C98.6977 4.81028 98.9548 3.9917 98.9409 3.15507L98.8455 3.15534H91.2681L90.9392 3.15269L90.8054 3.15278C90.7792 3.15322 90.7529 3.1534 90.7276 3.15357C90.6908 3.15375 90.6541 3.15401 90.6182 3.15481L90.6034 3.15525C89.7112 3.17831 88.8549 3.51278 88.1805 4.10128L88.1472 4.13121C88.0895 4.18279 88.0327 4.23666 87.9784 4.2936ZM102.027 2.501L102.029 2.49598L102.025 2.49228C102.014 2.49853 102.002 2.50373 101.991 2.50786L101.993 2.5157C101.999 2.5142 102.004 2.51191 102.01 2.50901L102.027 2.501Z" fill="#027DFF"/>
</g>
<defs>
<clipPath id="clip0_8651_403">
<rect width="104" height="36" fill="white"/>
</clipPath>
</defs>
</svg>
