<svg width="104" height="36" viewBox="0 0 104 36" fill="none" xmlns="http://www.w3.org/2000/svg">
<g clip-path="url(#clip0_9_2)">
<path d="M93.0691 35.9551C96.5136 35.9551 99.1901 34.9605 101.1 32.9519C103.011 30.9442 103.948 28.1619 103.948 24.5179C103.948 20.8732 103.003 18.0254 101.1 16.017C99.1989 14.0086 96.5136 13.0345 93.0691 13.0345C89.6237 13.0345 86.9367 14.0287 85.0369 16.017C83.1379 18.0053 82.1898 20.8532 82.1898 24.5179C82.1898 28.1821 83.1353 30.9864 85.0369 32.9748C86.9393 34.9632 89.601 35.9551 93.0691 35.9551ZM93.0691 31.563C88.9659 31.563 86.99 29.3079 86.99 24.5179C86.99 19.6814 88.9659 17.4524 93.0691 17.4524C97.1714 17.4524 99.1245 19.6814 99.1245 24.5179C99.1245 29.2876 97.1285 31.563 93.0691 31.563Z" fill="white"/>
<path d="M63.3368 29.0158C60.5151 31.9266 61.3128 36.0899 64.8833 35.9517H78.7768C80.0521 35.9517 80.6897 35.3109 80.6897 34.0294V33.2962C80.6897 32.0164 80.0521 31.3756 78.7768 31.3738H68.6156C68.0007 31.3738 67.8415 31.0869 68.2053 30.7322L78.9648 19.9508C80.3285 18.461 80.8751 16.676 80.6241 15.3496C80.3739 14.023 79.1756 13.0346 77.4446 13.0346H63.545C62.2689 13.0117 61.6347 13.6535 61.6347 14.937V15.6446C61.6347 16.9282 62.2715 17.57 63.545 17.57H73.715C74.2844 17.57 74.4637 17.8565 74.1243 18.2318L63.3368 29.0158Z" fill="white"/>
<path d="M57.842 13.0375C48.583 12.8713 47.2021 13.6936 46.9373 19.3836V34.0523C46.9373 34.3023 46.9863 34.5505 47.0815 34.7811C47.1767 35.0126 47.3162 35.2221 47.4921 35.399C47.6679 35.575 47.8767 35.7159 48.1064 35.8109C48.336 35.906 48.5822 35.9553 48.8307 35.9553H50.0005C50.2489 35.9553 50.4956 35.906 50.7247 35.8109C50.9548 35.7159 51.1638 35.575 51.3396 35.399C51.5154 35.2221 51.6545 35.0126 51.7498 34.7811C51.8452 34.5505 51.8942 34.3023 51.8942 34.0523V19.9509C51.8863 19.4981 51.909 19.0453 51.9624 18.5956C52 18.3197 52.1321 18.0657 52.3368 17.8783C52.5414 17.6907 52.8047 17.5816 53.0811 17.57H57.8079C59.1829 17.57 59.8687 16.9139 59.8687 15.6447V14.9169C59.8687 13.6707 59.1715 13.0175 57.842 13.0375Z" fill="white"/>
<path d="M14.0503 28.7577C13.6915 29.8606 13.3584 30.5569 13.0453 30.8948C12.8854 31.0586 12.6935 31.1871 12.4818 31.2724C12.2701 31.3578 12.0432 31.3983 11.8153 31.3904C11.5975 31.3974 11.3808 31.3569 11.1803 31.2716C10.9797 31.1862 10.8 31.0577 10.6537 30.8948C10.3177 30.5569 9.98176 29.8606 9.62585 28.7577L5.15875 14.5874C4.84841 13.5531 4.15374 13.0374 3.05758 13.0374H1.78492C0.421195 13.0374 -0.208053 13.8454 0.219056 15.1718L5.11606 29.8835C5.91894 32.2442 6.79301 33.8409 7.70688 34.6744C8.62084 35.508 10.0102 35.9551 11.821 35.9551C13.6317 35.9551 15.0382 35.5282 15.9777 34.6744C16.9173 33.8206 17.7658 32.2442 18.5401 29.8835L23.4656 15.1718C23.8899 13.8454 23.2635 13.0374 21.8997 13.0374H20.627C19.531 13.0145 18.8391 13.5302 18.5031 14.5874L14.0503 28.7577Z" fill="white"/>
<path d="M43.5831 24.8928C44.3717 24.142 44.7675 22.9502 44.7675 21.3374C44.7675 18.7102 43.9333 16.6559 42.2421 15.2005C40.5509 13.745 38.185 13.0345 35.1329 13.0345C28.0151 13.0345 24.2057 17.12 24.2057 24.5179C24.2057 28.242 25.1937 31.0753 27.1696 33.0179C28.8209 34.6797 30.9989 35.6515 33.6638 35.912L34.1507 35.9516C34.4838 35.9745 34.8197 35.9859 35.1642 35.9859H41.667C41.7291 35.9692 41.79 35.949 41.8492 35.9234C42.84 35.7914 43.3383 35.1586 43.3383 34.0293V33.2961C43.3383 32.0163 42.7014 31.3755 41.4278 31.3737C41.4278 31.3737 35.5884 31.5744 33.6581 31.3737C31.3291 31.1299 29.9085 29.5684 29.3077 27.3882L39.247 26.3513C41.3424 26.1304 42.7689 25.6436 43.5831 24.8928ZM29.0117 23.1052C29.3618 19.1084 31.3804 17.375 35.1329 17.375C38.4042 17.3521 40.0498 18.544 40.0498 20.9076C40.0498 21.7671 39.7651 22.0106 38.185 22.1883L29.0117 23.1052Z" fill="white"/>
<path fill-rule="evenodd" clip-rule="evenodd" d="M92.8924 0.0516771L92.4236 0.0522052L91.8874 0.0573103L89.782 0.0545817C89.5992 0.0537015 89.4182 0.0727137 89.2397 0.111354C89.0762 0.146562 88.9143 0.187755 88.7534 0.234846L88.7464 0.237486C88.6519 0.264948 88.5592 0.294171 88.4683 0.326562C87.2953 0.72001 86.2483 1.41959 85.4322 2.35374C85.3386 2.46491 85.2459 2.57863 85.1541 2.69482C84.9616 2.94576 84.7858 3.20938 84.6284 3.48374C83.7633 4.98781 83.4817 6.76044 83.8359 8.46115C83.8604 8.57972 83.8884 8.6981 83.919 8.81579C83.9269 8.84598 83.9356 8.87617 83.9444 8.90469C83.9505 8.92387 83.9593 8.9575 83.9671 8.99033C83.9715 9.00635 83.9759 9.02219 83.9794 9.03601L83.9899 9.07456C84.017 9.16232 84.045 9.24963 84.0756 9.33721C84.0843 9.36318 84.0948 9.38967 84.1045 9.41599C84.1158 9.44741 84.1281 9.47866 84.1377 9.50885C84.1788 9.61685 84.2208 9.72362 84.2671 9.82933C84.2724 9.84104 84.2794 9.8516 84.2881 9.86023C84.3852 9.95669 84.4946 10.0396 84.6135 10.1068C84.6669 10.138 84.7229 10.1658 84.7797 10.19C84.8304 10.212 84.8855 10.2228 84.9407 10.2217L85.9605 10.2235L92.8356 10.2228L93.7846 10.2194L94.2788 10.2192C94.822 10.2841 95.3713 10.2842 95.9144 10.2193C96.9247 10.1003 97.8973 9.76156 98.765 9.22675C99.6327 8.69185 100.374 7.97361 100.94 7.12167C101.006 7.02195 101.072 6.92002 101.134 6.81607L101.212 6.67955C101.297 6.53062 101.373 6.37844 101.446 6.22528L101.47 6.17291C101.91 5.22529 102.132 4.19071 102.121 3.14521L102.124 3.14108L102.123 3.11863C102.119 2.89453 102.108 2.66612 102.082 2.4466C102.089 2.44361 102.088 2.41967 102.087 2.39537C102.086 2.37064 102.085 2.34573 102.093 2.34221C102.023 1.59052 101.826 0.856352 101.512 0.171032L101.419 0.0101318L92.8924 0.0516771ZM87.9784 4.2936C87.3137 4.96722 86.9192 5.86387 86.8711 6.81193C86.865 6.91615 86.8641 7.01992 86.8711 7.12704L87.06 7.12599L89.077 7.12687L89.2616 7.12335L89.3281 7.12387L94.5403 7.12695C95.1124 7.17783 95.6888 7.10275 96.2302 6.90699C97.0253 6.6623 97.7198 6.16393 98.2087 5.48706C98.6977 4.81028 98.9548 3.9917 98.9408 3.15507L98.8455 3.15534H91.2681L90.9392 3.15269L90.8054 3.15278C90.7792 3.15322 90.7529 3.1534 90.7276 3.15357C90.6908 3.15375 90.6541 3.15401 90.6182 3.15481L90.6034 3.15525C89.7112 3.17831 88.8549 3.51278 88.1805 4.10128L88.1472 4.13121C88.0895 4.18279 88.0327 4.23666 87.9784 4.2936ZM102.027 2.501L102.029 2.49598L102.025 2.49228C102.014 2.49853 102.002 2.50373 101.991 2.50786L101.993 2.5157C101.999 2.5142 102.004 2.51191 102.01 2.50901L102.027 2.501Z" fill="white"/>
</g>
<defs>
<clipPath id="clip0_9_2">
<rect width="104" height="36" fill="white"/>
</clipPath>
</defs>
</svg>
